/* XPM */
const char *clineOp_xpm[] = {
/* columns rows colors chars-per-pixel */
"30 30 95 2",
"   c #272727",
".  c Gray17",
"X  c Gray19",
"o  c #373737",
"O  c #393939",
"+  c #3a3a3a",
"@  c Gray23",
"#  c Gray24",
"$  c Gray26",
"%  c Gray28",
"&  c #4b4b4b",
"*  c #4e4e4e",
"=  c #505050",
"-  c #535353",
";  c #555555",
":  c Gray34",
">  c Gray35",
",  c #5b5b5b",
"<  c Gray36",
"1  c #5d5d5d",
"2  c Gray37",
"3  c #606060",
"4  c Gray39",
"5  c #646464",
"6  c #686868",
"7  c Gray41",
"8  c Gray42",
"9  c #6c6c6c",
"0  c #717171",
"q  c #727272",
"w  c Gray47",
"e  c #797979",
"r  c #7c7c7c",
"t  c #808080",
"y  c #848484",
"u  c #868686",
"i  c #8d8d8d",
"p  c #909090",
"a  c #989898",
"s  c #9b9b9b",
"d  c Gray62",
"f  c Gray63",
"g  c Gray64",
"h  c Gray65",
"j  c #a9a9a9",
"k  c Gray68",
"l  c #b2b2b2",
"z  c #b7b7b7",
"x  c #b9b9b9",
"c  c Gray74",
"v  c Gray75",
"b  c #c3c3c3",
"n  c Gray77",
"m  c #c5c5c5",
"M  c Gray79",
"N  c #cacaca",
"B  c #cbcbcb",
"V  c #cdcdcd",
"C  c #cecece",
"Z  c Gray81",
"A  c #d0d0d0",
"S  c Gray82",
"D  c #d2d2d2",
"F  c #d3d3d3",
"G  c Gray83",
"H  c #d5d5d5",
"J  c Gray84",
"K  c #d7d7d7",
"L  c #d8d8d8",
"P  c Gray85",
"I  c #dadada",
"U  c Gray86",
"Y  c gainsboro",
"T  c #dddddd",
"R  c Gray87",
"E  c #dfdfdf",
"W  c Gray88",
"Q  c #e1e1e1",
"!  c #e2e2e2",
"~  c Gray89",
"^  c #e4e4e4",
"/  c #e6e6e6",
"(  c #e7e7e7",
")  c Gray91",
"_  c #e9e9e9",
"`  c Gray92",
"'  c #ececec",
"]  c Gray93",
"[  c #efefef",
"{  c Gray94",
"}  c #f1f1f1",
"|  c #f3f3f3",
" . c #f8f8f8",
".. c #f9f9f9",
"X. c Gray100",
/* pixels */
"J J J J J J J J J J J J J J J J J J J J J J J J J J J J J J ",
"J J J J J J J J J J J J J J J J J J J J J J J J J J J J J J ",
"J J J J J J J J J J J J J J J J J J J J J J J J J J J J J J ",
"J J J J J J J J J J J J J J J J J J J J J J J J J J J J J J ",
"J J J J J J J J J J J J J J J J J J J J J J J J J J J J J J ",
"J J J J J J J J J J J J J J J J J J J J J J J J J J J J J J ",
"J J J J J J J J J J J J J J J J J J J J J J J J J J J J J J ",
"J J J J J J J J J J J J J J J J J J E J A J J J J J J J J J ",
"J J J J J J J J J J J J J J J J J L z L ' A J J J J J J J J ",
"J J J J J J J J J J J J J J J J Z | q   y _ J J J J J J J J ",
"J J J J J J J J A E L J J J J J ~ j , k 9 e J E A J J J J J ",
"J J J J J J A / h X / L J J J J E e e  ._ r . j _ Z J J J J ",
"J J J J J J J A q 2 6 J J J J L Z $ ' Z J ~ ~ = d | J J J J ",
"J J J J J J L M O X.O x ~ A A _ : g L J J A J E 2 o n L J J ",
"J J J J J J E g 2 E M & b ~ J n % A L J J J J L L l 5 ~ J J ",
"J J J J J A ~ O Z L ~ n = c  .4 s _ A J J J J J J E ~ J J J ",
"J J J J J A _ # b E Z | 6 i c = J J J J J J J J J J J J J J ",
"J J J J J L n * M L J A L 9 , t ' A J J J J J J J J J J J J ",
"J J J J A ' , s _ A J J L J y / A J J J J J J J J J J J J J ",
"J J J J A ' 4 p / J J J J J / A J J J J J J J J J J J J J J ",
"J J J A _ p : _ A J J J J J A J J J J J J J J J J J J J J J ",
"J J J J E l s ~ A J J J J J J J J J J J J J J J J J J J J J ",
"J J J J J E ~ J J J J J J J J J J J J J J J J J J J J J J J ",
"J J J J J J A J J J J J J J J J J J J J J J J J J J J J J J ",
"J J J J J J J J J J J J J J J J J J J J J J J J J J J J J J ",
"J J J J J J J J J J J J J J J J J J J J J J J J J J J J J J ",
"J J J J J J J J J J J J J J J J J J J J J J J J J J J J J J ",
"J J J J J J J J J J J J J J J J J J J J J J J J J J J J J J ",
"J J J J J J J J J J J J J J J J J J J J J J J J J J J J J J ",
"J J J J J J J J J J J J J J J J J J J J J J J J J J J J J J "
};
