/* XPM */
const char *curveOp_xpm[] = {
/* columns rows colors chars-per-pixel */
"30 30 78 1",
"  c #040404",
". c #090909",
"X c #131313",
"o c Gray8",
"O c #181818",
"+ c #1b1b1b",
"@ c #222222",
"# c Gray15",
"$ c #272727",
"% c #2f2f2f",
"& c #323232",
"* c #343434",
"= c Gray21",
"- c #373737",
"; c Gray23",
": c #3e3e3e",
"> c #3f3f3f",
", c #414141",
"< c #444444",
"1 c #484848",
"2 c Gray29",
"3 c #4c4c4c",
"4 c #4e4e4e",
"5 c #676767",
"6 c #6c6c6c",
"7 c Gray43",
"8 c Gray45",
"9 c #767676",
"0 c #7c7c7c",
"q c #808080",
"w c #818181",
"e c Gray52",
"r c #888888",
"t c Gray54",
"y c #8b8b8b",
"u c #8d8d8d",
"i c #8e8e8e",
"p c #909090",
"a c #9d9d9d",
"s c #9f9f9f",
"d c #b7b7b7",
"f c Gray72",
"g c #c0c0c0",
"h c #cacaca",
"j c #cbcbcb",
"k c #cecece",
"l c Gray81",
"z c #d0d0d0",
"x c Gray82",
"c c #d2d2d2",
"v c #d3d3d3",
"b c Gray83",
"n c #d5d5d5",
"m c Gray84",
"M c #d7d7d7",
"N c #d8d8d8",
"B c Gray85",
"V c #dadada",
"C c Gray86",
"Z c gainsboro",
"A c #dddddd",
"S c Gray87",
"D c #dfdfdf",
"F c #e2e2e2",
"G c Gray89",
"H c #e4e4e4",
"J c Gray90",
"K c #e7e7e7",
"L c Gray91",
"P c #e9e9e9",
"I c #eaeaea",
"U c Gray92",
"Y c #ececec",
"T c Gray93",
"R c #eeeeee",
"E c #efefef",
"W c #f1f1f1",
"Q c #f4f4f4",
/* pixels */
"mmmmmmmmmmmmZmmmmmmmmmmmmmmmmm",
"mmmmmmmmmmmNjNmmmmmmmmmmmmmmmm",
"mmmmmmmmmmcK0wEcmmmmmmmmmmmmmm",
"mmmmmmmmmmmcE&6Ecmmmmmmmmmmmmm",
"mmmmmmmmmmmmmf69Kcmmmmmmmmmmmm",
"mmmmmmmmmmmmmZE8eEmmmmmmmmmmmm",
"mmmmmmmmmmmmmccW=8Fmmmmmmmmmmm",
"mmmmmmmmmmmmmmmZa=Kcmmmmmmmmmm",
"mmmmmmmmmmmmmmmNj>Fcmmmmmmmmmm",
"mmmmmmmmmmmmmmmNk;Fcmmmmmmmmmm",
"mmmmmmmmmmmmmmmE,%Kcmmmmmmmmmm",
"mmmmmmmmmmmmmmI1ocNmmmmmmmmmmm",
"mmmmmmmmmmmmmI4@mZmmmmmmmmmmmm",
"mmmmmmmmmmmmI<ONNcmmmmmmmmmmmm",
"mmmmmmmmmmmN1XNZcmmmmmmmmmmmmm",
"mmmmmmmmmcKaONZcmmmmmmmmmmmmmm",
"mmmmmmmmmmKr5Wkmmmmmmmmmmmmmmm",
"mmmmmmmmmNc.0Kcmmmmmmmmmmmmmmm",
"mmmmmmmmmNg<Qkmmmmmmmmmmmmmmmm",
"mmmmmmmmmNc.uKcmmmmmmmmmmmmmmm",
"mmmmmmmmmmKp>Emmmmmmmmmmmmmmmm",
"mmmmmmmmmmNj#4Zmmmmmmmmmmmmmmm",
"mmmmmmmmmmcZm#dFmcmmmmmmmmmmmm",
"mmmmmmmmmmmmNN@1EKcmmmmmmmmmmm",
"mmmmmmmmmmmmcZc#=uKcmmmmmmmmmm",
"mmmmmmmmmmmmmcZkr rKcmmmmmmmmm",
"mmmmmmmmmmmmmmcNIkjNmmmmmmmmmm",
"mmmmmmmmmmmmmmmmcNNmmmmmmmmmmm",
"mmmmmmmmmmmmmmmmmmmmmmmmmmmmmm",
"mmmmmmmmmmmmmmmmmmmmmmmmmmmmmm"
};
