/* XPM */
const char * dotPenOp_xpm[] = {
"40 40 6 1",
" 	c #D6D6D6D6D6D6",
".	c #000000000000",
"X	c #DFDF7D7D7D7D",
"o	c #BABABABABABA",
"O	c #F7F7BABA3C3C",
"+	c #E7E7BABA8282",
"                                        ",
"                                        ",
"                                        ",
"                                        ",
"                     ...                ",
"                    .XXX.               ",
"                    .XXX.               ",
"                   ..XX.                ",
"                   .o.X.                ",
"                  .ooo.                 ",
"                  ..oo.                 ",
"                 .O...                  ",
"                 .OOO.                  ",
"                .OOO.                   ",
"                .OOO.                   ",
"               .OOO.                    ",
"               .OOO.                    ",
"              .OOO.                     ",
"              .OOO.                     ",
"             .OOO.                      ",
"             .OOO.                      ",
"            .OOO.                       ",
"            .OOO.                       ",
"           .OOO.            ..          ",
"           .OOO.            ..          ",
"          .OOO.                         ",
"          .++O.              ..         ",
"          .++.               ..         ",
"          ...                           ",
"          ..       ..        ..         ",
"                   ..        ..         ",
"             ..       . ..              ",
"              ..     .. . .             ",
"                                        ",
"                                        ",
"                                        ",
"                                        ",
"                                        ",
"                                        ",
"                                        "};
