/* XPM */
const char * dynPenOp_xpm[] = {
"40 40 7 1",
" 	c #D6D6D6D6D6D6",
".	c #000000000000",
"X	c #DEDE7D7D7B7B",
"o	c #BDBDBABABDBD",
"O	c #F7F7BABA3939",
"+	c #FFFFFFFFFFFF",
"@	c #E7E7BABA8484",
"                                        ",
"                                        ",
"                                        ",
"                                        ",
"                     ...                ",
"                    .XXX.               ",
"                    .XXX.               ",
"                   ..XX.                ",
"                   .o.X.                ",
"                  .ooo.                 ",
"                  ..oo.                 ",
"                 .O...                  ",
"                 .OOO.                  ",
"                .OOO.                   ",
"                .OOO.                   ",
"               .OOO.                    ",
"               .OOO.           ...      ",
"              .OOO.           ......    ",
"              .OOO.         ....++..    ",
"             .OOO.         ...++++..    ",
"             .OOO.        ...+++++..    ",
"            .OOO.         ..++++++..    ",
"            .OOO.        ..+++++++..    ",
"           .OOO.         ..+++++++..    ",
"           .OOO.         ..++++++...    ",
"          .OOO.          ..++++++..     ",
"          .@@O.         ..++++++..      ",
"          .@@.          ...++++...      ",
"          ...            ..++...+..     ",
"          ..+.           ......++..     ",
"            .......     ...........     ",
"              ....................      ",
"                   .....                ",
"                                        ",
"                                        ",
"                                        ",
"                                        ",
"                                        ",
"                                        ",
"                                        "};
