/* XPM */
const char * fboxOp_xpm[] = {
"40 40 3 1",
" 	c #D6D6D6D6D6D6",
".	c #000000000000",
"X	c #FBFB14144141",
"                                        ",
"                                        ",
"                                        ",
"                                        ",
"                                        ",
"                                        ",
"                                        ",
"                                        ",
"                                        ",
"                                        ",
"                                        ",
"         .......................        ",
"         .......................        ",
"         ..XXXXXXXXXXXXXXXXXXX..        ",
"         ..XXXXXXXXXXXXXXXXXXX..        ",
"         ..XXXXXXXXXXXXXXXXXXX..        ",
"         ..XXXXXXXXXXXXXXXXXXX..        ",
"         ..XXXXXXXXXXXXXXXXXXX..        ",
"         ..XXXXXXXXXXXXXXXXXXX..        ",
"         ..XXXXXXXXXXXXXXXXXXX..        ",
"         ..XXXXXXXXXXXXXXXXXXX..        ",
"         ..XXXXXXXXXXXXXXXXXXX..        ",
"         ..XXXXXXXXXXXXXXXXXXX..        ",
"         ..XXXXXXXXXXXXXXXXXXX..        ",
"         ..XXXXXXXXXXXXXXXXXXX..        ",
"         ..XXXXXXXXXXXXXXXXXXX..        ",
"         ..XXXXXXXXXXXXXXXXXXX..        ",
"         .......................        ",
"         .......................        ",
"                                        ",
"                                        ",
"                                        ",
"                                        ",
"                                        ",
"                                        ",
"                                        ",
"                                        ",
"                                        ",
"                                        ",
"                                        "};
