/* XPM */
const char * fovalOp_xpm[] = {
"40 40 3 1",
" 	c #D6D6D6D6D6D6",
".	c #000000000000",
"X	c #FBFB14144141",
"                                        ",
"                                        ",
"                                        ",
"                                        ",
"                                        ",
"                                        ",
"                                        ",
"                                        ",
"                                        ",
"                                        ",
"                .......                 ",
"             ...XXXXXXX...              ",
"           ..XXXXXXXXXXXXX..            ",
"          .XXXXXXXXXXXXXXXXX.           ",
"         .XXXXXXXXXXXXXXXXXXX.          ",
"        .XXXXXXXXXXXXXXXXXXXXX.         ",
"       .XXXXXXXXXXXXXXXXXXXXXXX.        ",
"       .XXXXXXXXXXXXXXXXXXXXXXX.        ",
"      .XXXXXXXXXXXXXXXXXXXXXXXXX.       ",
"      .XXXXXXXXXXXXXXXXXXXXXXXXX.       ",
"      .XXXXXXXXXXXXXXXXXXXXXXXXX.       ",
"      .XXXXXXXXXXXXXXXXXXXXXXXXX.       ",
"       .XXXXXXXXXXXXXXXXXXXXXXX.        ",
"       .XXXXXXXXXXXXXXXXXXXXXXX.        ",
"        .XXXXXXXXXXXXXXXXXXXXX.         ",
"         .XXXXXXXXXXXXXXXXXXX.          ",
"          .XXXXXXXXXXXXXXXXX.           ",
"           ..XXXXXXXXXXXXX..            ",
"             ...XXXXXXX...              ",
"                .......                 ",
"                                        ",
"                                        ",
"                                        ",
"                                        ",
"                                        ",
"                                        ",
"                                        ",
"                                        ",
"                                        ",
"                                        "};
