/* XPM */
const char * lineOp_xpm[] = {
"30 30 201 2",
"  	c None",
". 	c #DBDBDB",
"+ 	c #D6D6D6",
"@ 	c #303030",
"# 	c #8D8D8D",
"$ 	c #D1D1D1",
"% 	c #B5B8B9",
"& 	c #BDBDBD",
"* 	c #525252",
"= 	c #969695",
"- 	c #3B2424",
"; 	c #2E1515",
"> 	c #7D7B7B",
", 	c #BABABA",
"' 	c #C9C9C9",
") 	c #AAAAAA",
"! 	c #464646",
"~ 	c #5A5959",
"{ 	c #3A3838",
"] 	c #D67373",
"^ 	c #FF9696",
"/ 	c #412626",
"( 	c #B5B5B5",
"_ 	c #C4C5C4",
": 	c #6B6A6B",
"< 	c #555555",
"[ 	c #757676",
"} 	c #000000",
"| 	c #E17E7E",
"1 	c #834242",
"2 	c #D0D1D1",
"3 	c #232323",
"4 	c #737373",
"5 	c #7C8282",
"6 	c #6C5050",
"7 	c #613939",
"8 	c #949D9C",
"9 	c #6F6F6F",
"0 	c #414141",
"a 	c #919191",
"b 	c #1C1C1E",
"c 	c #CED0D2",
"d 	c #898989",
"e 	c #4D4D4E",
"f 	c #5E5237",
"g 	c #674C15",
"h 	c #17181B",
"i 	c #403E3B",
"j 	c #C2C2C2",
"k 	c #494A4A",
"l 	c #373737",
"m 	c #909195",
"n 	c #624A14",
"o 	c #FFCF45",
"p 	c #A97C20",
"q 	c #4D4C4B",
"r 	c #3D3B35",
"s 	c #E2AD31",
"t 	c #FFD245",
"u 	c #463A19",
"v 	c #CDC7C8",
"w 	c #BCBABA",
"x 	c #B7B7B7",
"y 	c #D4D5D5",
"z 	c #D6D4D3",
"A 	c #696F7B",
"B 	c #86641F",
"C 	c #FFD448",
"D 	c #8E6A16",
"E 	c #69837D",
"F 	c #B7BAB9",
"G 	c #D1CCCD",
"H 	c #B3B3B3",
"I 	c #868686",
"J 	c #504C44",
"K 	c #C49324",
"L 	c #FFC843",
"M 	c #5C4920",
"N 	c #9499A4",
"O 	c #790009",
"P 	c #4F3C3E",
"Q 	c #627B76",
"R 	c #3D3D3D",
"S 	c #D5D4D3",
"T 	c #878B97",
"U 	c #6E5512",
"V 	c #FFE24F",
"W 	c #A9811E",
"X 	c #575B64",
"Y 	c #DADAD7",
"Z 	c #FF2557",
"` 	c #CF0729",
" .	c #8D0D24",
"..	c #182A27",
"+.	c #767373",
"@.	c #898485",
"#.	c #262524",
"$.	c #8E9096",
"%.	c #4D4637",
"&.	c #E5AB35",
"*.	c #F3B936",
"=.	c #4B3E23",
"-.	c #E8657F",
";.	c #FF0037",
">.	c #87000C",
",.	c #5A726E",
"'.	c #A7B6B3",
").	c #25262A",
"!.	c #563F09",
"~.	c #B58726",
"{.	c #494B4E",
"].	c #D77688",
"^.	c #FD3C65",
"/.	c #980013",
"(.	c #4F0D16",
"_.	c #859996",
":.	c #D2D5D4",
"<.	c #F63761",
"[.	c #FE0635",
"}.	c #640E19",
"|.	c #7B9692",
"1.	c #C2C6C5",
"2.	c #726E6F",
"3.	c #282929",
"4.	c #CFCDCB",
"5.	c #656B76",
"6.	c #84621D",
"7.	c #9B7623",
"8.	c #EA4767",
"9.	c #FF1F48",
"0.	c #6F091B",
"a.	c #160000",
"b.	c #5E615E",
"c.	c #BBBBBC",
"d.	c #4E4942",
"e.	c #C59425",
"f.	c #FFC742",
"g.	c #5C481F",
"h.	c #8B909B",
"i.	c #92918E",
"j.	c #CAD5D3",
"k.	c #CAA4AB",
"l.	c #FF1848",
"m.	c #E70432",
"n.	c #522C33",
"o.	c #AABCB9",
"p.	c #CCC9CA",
"q.	c #CAC9C6",
"r.	c #828793",
"s.	c #545761",
"t.	c #D4D3D0",
"u.	c #C5A1A8",
"v.	c #FC1F4C",
"w.	c #E40B32",
"x.	c #441B20",
"y.	c #464D4D",
"z.	c #A3A4A4",
"A.	c #B6B9BE",
"B.	c #443E31",
"C.	c #E6AD38",
"D.	c #DD8394",
"E.	c #B90022",
"F.	c #373132",
"G.	c #787979",
"H.	c #97999E",
"I.	c #5F460C",
"J.	c #FFCF40",
"K.	c #B88929",
"L.	c #D68091",
"M.	c #FF073C",
"N.	c #C00327",
"O.	c #080000",
"P.	c #6C7D7A",
"Q.	c #33302B",
"R.	c #E3B35B",
"S.	c #FFD155",
"T.	c #453713",
"U.	c #B1B3BB",
"V.	c #BDBCBB",
"W.	c #C6A6AB",
"X.	c #E85C7A",
"Y.	c #E10330",
"Z.	c #7D0014",
"`.	c #6B7D7A",
" +	c #403E3D",
".+	c #D7AB7E",
"++	c #84673D",
"@+	c #6F6E67",
"#+	c #EA5875",
"$+	c #FF053B",
"%+	c #970E29",
"&+	c #0A0806",
"*+	c #D4D6D8",
"=+	c #E05671",
"-+	c #A00C28",
";+	c #9C9B9B",
">+	c #636363",
",+	c #E34A68",
"'+	c #EE758D",
")+	c #ABACAD",
"!+	c #D4D4D4",
". + + + + + + + + + + + + + + + + + + + + + + + + + + + + + ",
"@ # + + + + + + + + + + + + + + + + + + + + + + + + $ % + + ",
"& * @ + . + + + + + + + + + + + + + + + + + + + + = - ; > + ",
", ' ) ! ~ + + + + + + + + + + + + + + + + + + + + { ] ^ / % ",
", ( _ ) : < + + + + + + + + + + + + + + + + + + [ } | 1 : + ",
", , ( & 2 # 3 4 . + + + + + + + + + + + + + + + ~ 5 6 7 8 + ",
", , , , , & 2 9 0 a + + + + + + + + + + + + + = b c a ~ . + ",
", , , , , , ( _ d e d + + + + + + + + + + + + f g h i + + + ",
", , , , , , , ( ' j k l + . + + + + + + + + m n o p q + + + ",
", , , , , , , , , , ' ) ! ~ + + + + + + + + r s t u + + + + ",
"v w ( , ( ( x , , , ( _ ) : * + y + + + z A B C D 9 + + + + ",
"E F G H ' 2 _ , , , , ( & 2 I e # + + + + J K L M N + + + + ",
"O P Q . : R I _ , , , , , ( ' # R 4 + S T U V W X Y + + + + ",
"Z `  ...+.@.= j , , , , , , ( j 2 9 #.$.%.&.*.=.% + + + + + ",
"+ -.;.>.,.'.G ( , , ( , , , , , , & H ).!.t ~.{.+ + + + + + ",
"+ + ].^./.(._.v , j _ , , , , , , ( 2 r s t u + + + + + + + ",
"+ + :.+ <.[.}.|.1.2.3., , , , , ( 4.5.6.t 7.} q + + + + + + ",
"+ + + + + 8.9.0.a.b.& H , , , , , c.d.e.f.g.h.i.e # + + + + ",
"+ + + + + j.k.l.m.n.o.p., , & , q.r.U V W s.t._ # R 4 + + + ",
"+ + + + + + + u.v.w.x.y.1._ z.H A.B.C.*.=.) & ( j 2 9 3 = + ",
"+ + + + + + + + + D.[.E.e 8 F.G.H.I.J.K.{.' ( , ( , & H k a ",
"+ + + + + + + + + + L.M.N.O.P.. Q.R.S.T.U.V., , , , , & j < ",
"+ + + + + + + + + + + W.X.Y.Z.`. +.+++@+c., , , , , , , & ( ",
"+ + + + + + + + + + + + + #+$+%+} &+G.*+' , , , , , , , , & ",
"+ + + + + + + + + + + + + + =+$+-+{.;+4 >+j , , , , , , , , ",
"+ + + + + + + + + + + + + + :.,+'++ e * d _ ( , ( , , , , , ",
"+ + + + + + + + + + + + + + + + + + + ~ 0 )+j , 2 & , , , , ",
"+ + + + + + + + + + + + + + + + + + + !++ R H ( R z.j , , , ",
"+ + + + + + + + + + + + + + + + + + + + + + l l > H & , , , ",
"+ + + + + + + + + + + + + + + + + + + + + + + a >+, , , , , "};
