/* XPM */
const char * rayOp_xpm[] = {
"40 40 2 1",
" 	c #D6D6D6D6D6D6",
".	c #000000000000",
"                                        ",
"                                        ",
"                                        ",
"                                        ",
"                  ...                   ",
"                 ......                 ",
"                .........               ",
"               ...........              ",
"             .... ....  ....            ",
"            ...   .....  ....           ",
"           ...   ..  ..    ....         ",
"          ...    ..  ..      ..         ",
"         ...     ..   ..                ",
"        ...      ..   ..                ",
"       ...       ..   ...               ",
"                ..     ..               ",
"                ..     ..               ",
"                ..      ..              ",
"                ..      ..              ",
"                ..       ..             ",
"               ..        ..             ",
"               ..        ...            ",
"               ..         ..            ",
"               ..         ..            ",
"               ..          ..           ",
"               ..          ..           ",
"                           ...          ",
"                            ..          ",
"                            ..          ",
"                             ..         ",
"                             ..         ",
"                             ..         ",
"                                        ",
"                                        ",
"                                        ",
"                                        ",
"                                        ",
"                                        ",
"                                        ",
"                                        "};
