/* XPM */
const char *selpolyOp_xpm[] = {
/* columns rows colors chars-per-pixel */
"30 30 111 2",
"   c #3b3bff",
".  c #3d3dff",
"X  c #3e3eff",
"o  c #3f3fff",
"O  c #4040ff",
"+  c #4141ff",
"@  c #4242ff",
"#  c #4343ff",
"$  c #4444ff",
"%  c #4545ff",
"&  c #4646ff",
"*  c #4747ff",
"=  c #4848ff",
"-  c #4949ff",
";  c #4a4aff",
":  c #4b4bff",
">  c #4c4cff",
",  c #4d4dff",
"<  c #4e4eff",
"1  c #4f4fff",
"2  c #5050ff",
"3  c #5151ff",
"4  c #5252ff",
"5  c #5353ff",
"6  c #5454ff",
"7  c #5555ff",
"8  c #5656ff",
"9  c #5858ff",
"0  c #5959ff",
"q  c #5a5aff",
"w  c #5b5bff",
"e  c #5f5fff",
"r  c #6060ff",
"t  c #6161ff",
"y  c #6262ff",
"u  c #6363ff",
"i  c #6565ff",
"p  c #6767ff",
"a  c #6868ff",
"s  c #6969ff",
"d  c #6b6bff",
"f  c #6c6cff",
"g  c #6d6dff",
"h  c #6e6eff",
"j  c #6f6fff",
"k  c #7070ff",
"l  c #7171ff",
"z  c #7272ff",
"x  c #7777ff",
"c  c #7878ff",
"v  c #7979ff",
"b  c #7c7cff",
"n  c #7e7eff",
"m  c #7f7fff",
"M  c #8181ff",
"N  c #8282ff",
"B  c #8484ff",
"V  c #8686ff",
"C  c #8989ff",
"Z  c #8a8aff",
"A  c #8c8cff",
"S  c #8d8dff",
"D  c #8e8eff",
"F  c #9292ff",
"G  c #9494ff",
"H  c #9595ff",
"J  c #9797ff",
"K  c #9a9aff",
"L  c #9b9bff",
"P  c #9c9cff",
"I  c #a0a0ff",
"U  c #a3a3ff",
"Y  c #a4a4ff",
"T  c #a6a6ff",
"R  c #aaaaff",
"E  c #acacff",
"W  c #aeaeff",
"Q  c #b2b2ff",
"!  c #b5b5ff",
"~  c #b6b6ff",
"^  c #b7b7ff",
"/  c #b8b8ff",
"(  c #babaff",
")  c #bebeff",
"_  c #c5c5ff",
"`  c #c6c6ff",
"'  c #cacaff",
"]  c #ccccff",
"[  c #d0d0ff",
"{  c #d4d4ff",
"}  c #d5d5ff",
"|  c #d6d6ff",
" . c #d7d7ff",
".. c #d8d8ff",
"X. c #dbdbff",
"o. c #dcdcff",
"O. c #ddddff",
"+. c #dedeff",
"@. c #e1e1ff",
"#. c #e8e8ff",
"$. c #ebebff",
"%. c #f1f1ff",
"&. c #f3f3ff",
"*. c #f5f5ff",
"=. c GhostWhite",
"-. c #fafaff",
";. c #fbfbff",
":. c #fcfcff",
">. c #fdfdff",
",. c #fefeff",
"<. c Gray100",
/* pixels */
"3 3 3 3 3 3 3 3 3 3 3 3 3 3 3 3 3 3 3 3 3 3 3 3 3 3 3 3 3 3 ",
"3 3 3 3 3 3 3 3 3 3 3 3 3 3 3 3 3 3 3 6 3 3 3 3 3 3 3 3 3 3 ",
"3 3 3 3 3 3 3 3 3 3 3 3 3 3 3 3 3 3 6 % , 3 3 3 3 3 3 3 3 3 ",
"3 3 3 3 3 3 3 3 3 3 3 3 3 3 3 3 3 3 o D 0 3 3 3 3 3 3 3 3 3 ",
"3 3 3 3 3 3 3 3 % 3 6 3 3 3 6 , % z X.#.3 , 3 3 3 3 3 3 3 3 ",
"3 3 3 3 3 6 % } Z ; % 3 3 6 % p p 3 0 ( B ; 3 3 3 3 3 3 3 3 ",
"3 3 3 3 3 6 ; K Y @ P , ; , e _ p ; , , J , 3 3 3 3 3 3 3 3 ",
"3 3 3 3 3 ; 6 ; @ , b O.D , _ e % 6 3 6 , ; 3 3 3 3 3 3 3 3 ",
"3 3 3 3 , 6 ( v ; 3 % t 0 3 0 ; 6 3 , 0 ) t , 3 3 3 3 3 3 3 ",
"3 3 3 3 ; z B @ 6 3 3 , , 3 , 3 3 3 3 @ M ^ o 6 3 3 3 3 3 3 ",
"3 3 3 3 6 , ; 6 3 3 3 3 3 3 3 3 3 3 3 % Z Q @ 6 3 3 3 3 3 3 ",
"3 3 3 , 3 [ ; 3 3 3 3 3 3 3 3 3 3 3 3 3 6 ; ; 3 3 3 3 3 3 3 ",
"3 3 3 ; I K ; 3 3 3 3 3 3 3 3 3 3 3 3 3 % M j ; 3 3 3 3 3 3 ",
"3 3 3 ; v , 3 6 6 3 3 3 3 3 3 3 3 3 3 6 o ^ Z % 3 3 3 3 3 3 ",
"3 3 , s % @ 6 @ @ 6 3 6 6 3 3 6 6 3 3 6 @ K b % 3 3 3 3 3 3 ",
"3 6 o E O.J @ Y I @ 6 % % , , % % 3 , , 3 ; @ 3 3 3 3 3 3 3 ",
"3 3 , t D b ; x R J ; ] O.s s O.' 6 0 t 3 6 ^ 6 3 3 3 3 3 3 ",
"3 3 3 , @ % 6 % , 0 , t t 6 6 t t % F O.% D <.j % 6 3 3 3 3 ",
"3 3 3 3 3 3 3 3 3 , 3 , , 3 3 , , 3 ; % 6 o } <.j % 6 3 3 3 ",
"3 3 3 3 3 3 3 3 3 3 3 3 3 3 3 3 3 3 3 6 6 % } <.%.z % 6 3 3 ",
"3 3 3 3 3 3 3 3 3 3 3 3 3 3 3 3 3 3 3 3 6 % } <.;.;.j % 6 3 ",
"3 3 3 3 3 3 3 3 3 3 3 3 3 3 3 3 3 3 3 3 6 % } <.;.<.*.z % 6 ",
"3 3 3 3 3 3 3 3 3 3 3 3 3 3 3 3 3 3 3 3 6 % } <.;.<.<.%.s ; ",
"3 3 3 3 3 3 3 3 3 3 3 3 3 3 3 3 3 3 3 3 6 % } ;.#.<., 0 6 3 ",
"3 3 3 3 3 3 3 3 3 3 3 3 3 3 3 3 3 3 3 3 6 % X.J p ;.J @ 3 3 ",
"3 3 3 3 3 3 3 3 3 3 3 3 3 3 3 3 3 3 3 3 3 , j ,   } @.@ 6 3 ",
"3 3 3 3 3 3 3 3 3 3 3 3 3 3 3 3 3 3 3 3 3 3 ; 3 3 0 <.R @ 6 ",
"3 3 3 3 3 3 3 3 3 3 3 3 3 3 3 3 3 3 3 3 3 3 3 3 3 3 E b ; 3 ",
"3 3 3 3 3 3 3 3 3 3 3 3 3 3 3 3 3 3 3 3 3 3 3 3 3 3 o ; 3 3 ",
"3 3 3 3 3 3 3 3 3 3 3 3 3 3 3 3 3 3 3 3 3 3 3 3 3 3 6 3 3 3 "
};
