/* XPM */
const char * selrectOp_xpm[] = {
"30 30 27 1",
" 	c None",
".	c #5151FF",
"+	c #FFFFFF",
"@	c #B7B7FF",
"#	c #5454FF",
"$	c #6F6FFF",
"%	c #4545FF",
"&	c #D5D5FF",
"*	c #F1F1FF",
"=	c #7272FF",
"-	c #FBFBFF",
";	c #F5F5FF",
">	c #6969FF",
",	c #E8E8FF",
"'	c #4D4DFF",
")	c #5959FF",
"!	c #DBDBFF",
"~	c #9797FF",
"{	c #6767FF",
"]	c #4242FF",
"^	c #3B3BFF",
"/	c #E1E1FF",
"(	c #4A4AFF",
"_	c #AAAAFF",
":	c #ACACFF",
"<	c #7C7CFF",
"[	c #3F3FFF",
"..............................",
"..............................",
"..............................",
"..............................",
"..............................",
"..............................",
"..............................",
"..............................",
"..............................",
".......+.+.+.+.+..+..+.+......",
"..............................",
".......+...............+......",
"..............................",
".......+...............+......",
"..............................",
".......+...............+......",
"..............................",
".......+...............@#.....",
".......................+$%#...",
".......+...............&+$%#..",
".......................&+*=%#.",
".......+.+..+..+.+.+.+.&+--$%#",
".......................&+-+;=%",
".......................&+-++*>",
".......................&-,+')#",
".......................!~{-~].",
".......................$'^&/]#",
".......................(..)+_]",
"...........................:<(",
"...........................[(."};
