/* XPM */
const char * smearOp_xpm[] = {
"40 40 5 1",
" 	c #D6D6D6D6D6D6",
".	c #FBFB14144141",
"X	c #AEAE28281C1C",
"o	c #000000000000",
"O	c #51515151FFFF",
"                                        ",
"                               ....     ",
"                             ........   ",
"                            ..........  ",
"                            ..........  ",
"                           ..........XX ",
"                          ..........X.X ",
"                         ..........X.XX ",
"                       oo .........X.XX ",
"                     oo   .....X.XX.XX  ",
"                   oo      ..X..XXXXXX  ",
"                 oo        .XXXXXXXXX   ",
"               oo           XXXXXXX     ",
"             oo            ooXX         ",
"           oo          OOoo             ",
"          oOOOOOOOOOOOOoo               ",
"          oOOOOOOOOOOOo                 ",
"         oOOOOOOOOOoo                   ",
"        ooOOOOOOOoo                     ",
"      ooOOOOOOOoo                       ",
"     oOOOOooooo                         ",
"      OOoo                              ",
"      oo                                ",
"                                        ",
"                                        ",
"                                        ",
"    O                                   ",
"   OOO                                  ",
"   OOO                                  ",
"   OOO                                  ",
"  OOOOO                                 ",
"  OOOOO                                 ",
"  OOOOO                                 ",
"  OOOOO                                 ",
"   OOO                                  ",
"                                        ",
"                                        ",
"                                        ",
"                                        ",
"                                        "};
