/* XPM */
const char * sprayOp_xpm[] = {
"40 40 6 1",
" 	c #D6D6D6D6D6D6",
".	c #757575757575",
"X	c #000000000000",
"o	c #CBCBC7C7C7C7",
"O	c #FFFFFFFFFFFF",
"+	c #51515151FFFF",
"                                        ",
"                                        ",
"                                        ",
"                                        ",
"                                        ",
"                   ...........          ",
"                ..Xo.o.ooOOOOO...     ..",
"               .XX+.+.++++++++OOO. X..oo",
"               ....+.+++++++++...XXooooo",
"               .ooo...........oooXo.oooo",
"               .oooooooooooooooo..oooooo",
"                .oooooooooooooooo.o.oooo",
"                .ooooooooooooooo.ooooooo",
"                .o.ooooooooooo.ooo.ooooo",
"                 .oo.ooooooooooooooooooo",
"                 XoXo.ooooo.oooooooooooo",
"                  XXoo.o.ooooooooooooooo",
"                ..ooXXooooooooooooooo.o.",
"              ..OOOooooooooooooooo.o.o.o",
"             .OOOOooooooooooooooo.o.oXX.",
"           ..OXOooooooooooooo.o.ooXX.   ",
"          XOOOo.oooooo.o.o.o.oXXX.      ",
"         .oXoooXooo.o.o.ooXXX.          ",
"         .ooXoo.o..o.oXXX.              ",
"         .ooXo.X.oXXX.                  ",
"++ ++ + + .oXoXXX.                      ",
"     + +   X..                          ",
"  + +   +                               ",
"   + + +                                ",
"  +  +                                  ",
"+  +                                    ",
"  +O+                                   ",
"   +                                    ",
"                                        ",
"                                        ",
"                                        ",
"                                        ",
"                                        ",
"                                        ",
"                                        "};
