/* XPM */
const char *textOp_xpm[] = {
/* columns rows colors chars-per-pixel */
"30 30 182 2",
"   c Gray0",
".  c #010101",
"X  c #020101",
"o  c #020202",
"O  c Gray2",
"+  c #060606",
"@  c Gray3",
"#  c #090909",
"$  c Gray4",
"%  c #0c0c0c",
"&  c Gray5",
"*  c #0e0e0e",
"=  c #101010",
"-  c #111111",
";  c #161616",
":  c Gray9",
">  c Gray10",
",  c #20190b",
"<  c #222222",
"1  c #232323",
"2  c Gray15",
"3  c #272727",
"4  c #282828",
"5  c Gray16",
"6  c Gray17",
"7  c #2c2c2c",
"8  c Gray19",
"9  c #313131",
"0  c #343434",
"q  c #353535",
"w  c Gray21",
"e  c #373737",
"r  c Gray22",
"t  c #393939",
"y  c #3a3a3a",
"u  c Gray23",
"i  c #3c3c3c",
"p  c Gray24",
"a  c #3e3e3e",
"s  c #433518",
"d  c #413816",
"f  c #5e4614",
"g  c #534a37",
"h  c #664d1b",
"j  c #6a4e12",
"k  c #6f530e",
"l  c #7b5a16",
"z  c #6a562a",
"x  c Gray25",
"c  c Gray27",
"v  c #45484e",
"b  c #484848",
"n  c #494949",
"m  c #4c4c4c",
"M  c Gray31",
"N  c #4c5057",
"B  c #565656",
"V  c Gray34",
"C  c #585858",
"Z  c #5d5d5d",
"A  c Gray37",
"S  c #5f5f5f",
"D  c #625e55",
"F  c #61605e",
"G  c Gray40",
"H  c Gray41",
"J  c Gray42",
"K  c Gray45",
"L  c #757472",
"P  c #767676",
"I  c Gray48",
"U  c #b48218",
"Y  c #b9861c",
"T  c #b58628",
"R  c #dca533",
"E  c #e4b537",
"W  c #ebb139",
"Q  c #f3b73c",
"!  c #f4b73b",
"~  c #f5b93c",
"^  c #f6bc3e",
"/  c #f9bd3f",
"(  c #fbbf3f",
")  c #ffc237",
"_  c #fdc13a",
"`  c #ffc13f",
"'  c #ffc53d",
"]  c #f6c743",
"[  c #fec945",
"{  c #ffce44",
"}  c #ffd748",
"|  c #ffe249",
" . c Gray51",
".. c #838383",
"X. c #848484",
"o. c #868686",
"O. c #888888",
"+. c Gray57",
"@. c #929292",
"#. c #959595",
"$. c #90929b",
"%. c #9a9a9a",
"&. c #9b9b9b",
"*. c #979da9",
"=. c #999fab",
"-. c #9ea1a7",
";. c #9ca2af",
":. c #9fa5b0",
">. c #a0a0a0",
",. c Gray63",
"<. c #a2a2a2",
"1. c #a5a5a5",
"2. c #a8a7a6",
"3. c Gray66",
"4. c #aaaaaa",
"5. c Gray67",
"6. c Gray68",
"7. c #aeaeae",
"8. c Gray69",
"9. c #b1b1b1",
"0. c #b2b2b2",
"q. c Gray70",
"w. c Gray71",
"e. c #b6b6b6",
"r. c #bebebe",
"t. c Gray75",
"y. c #c0c0c0",
"u. c Gray76",
"i. c #c3c3c3",
"p. c #c5c5c5",
"a. c #cacaca",
"s. c Gray80",
"d. c #cdcdcd",
"f. c Gray81",
"g. c #d0d0d0",
"h. c Gray82",
"j. c #d2d2d2",
"k. c #d3d3d3",
"l. c #d3d3d4",
"z. c Gray83",
"x. c #d5d5d5",
"c. c #d5d5d6",
"v. c #d6d6d5",
"b. c Gray84",
"n. c #d7d7d7",
"m. c #d5d8dc",
"M. c #d8d8d8",
"N. c #d9d9d8",
"B. c Gray85",
"V. c #dadada",
"C. c Gray86",
"Z. c #dddbd8",
"A. c #dddddd",
"S. c Gray87",
"D. c #dfdfdf",
"F. c #d9dce4",
"G. c #dcdee2",
"H. c #e1e1df",
"J. c Gray88",
"K. c #e1e1e1",
"L. c #e2e2e2",
"P. c Gray89",
"I. c #e6e5e2",
"U. c #e4e4e4",
"Y. c Gray90",
"T. c #e6e5e4",
"R. c #e6e6e6",
"E. c #e7e7e7",
"W. c #e9e7e4",
"Q. c #eae9e7",
"!. c Gray91",
"~. c #e9e9e9",
"^. c #eaeae8",
"/. c #eaeaea",
"(. c Gray92",
"). c #ececec",
"_. c Gray93",
"`. c #efefef",
"'. c Gray94",
"]. c #f4f4f4",
"[. c #fdfbf8",
"{. c Gray100",
/* pixels */
"b.b.b.b.b.b.b.b.b.b.b.b.b.b.b.b.b.b.b.b.b.b.b.l.Z.F.s ' ! ~ ",
"b.b.b.b.b.b.b.b.b.b.b.b.b.b.b.b.b.b.b.b.b.b.b.M.G.F T ` ! ^ ",
"b.b.b.b.b.b.b.b.b.b.b.b.b.b.b.b.b.b.b.b.b.b.b.b.D U { ! / E ",
"b.b.b.b.b.b.b.b.b.b.b.b.b.b.b.b.b.b.b.b.h.h.I.*.k } W / ) z ",
"b.b.b.b.b.b.b.b.b.b.b.b.b.b.b.b.b.b.b.b.J.E.m.g R Q [ _ f :.",
"b.b.b.b.b.b.b.b.b.b.b.b.b.b.b.b.b.b.h.J.5.2.$.d | ] Y h =.W.",
"b.b.b.b.b.b.b.b.b.b.b.b.b.b.b.b.b.h.(.X.      , l j N -.(.h.",
"b.b.b.b.b.b.b.b.b.b.b.b.b.b.b.b.b.(. .  * O O   v ;.Q.H.h.b.",
"b.b.b.b.b.b.b.b.b.b.b.b.b.b.b.b.A. .  O h. .    L [.f.h.b.b.",
"b.b.b.b.b.b.b.b.b.b.b.b.b.b.b.M.h.$   C E.{.u   5.M.b.b.b.b.",
"b.b.b.b.b.b.b.b.b.b.b.b.b.b.b.b.f.  V J.u 7 * 8.E.h.b.b.b.b.",
"b.b.b.b.b.b.b.b.b.b.b.b.b.b.f.].8 M (.2   $ 7.E.h.b.b.b.b.b.",
"b.b.b.b.b.b.b.b.b.b.b.A.J.h.(.%.G M.2   - w.E.h.b.b.b.b.b.b.",
"b.b.b.b.b.b.b.b.b.b.A.%.K ).#.S f.B &.<.w.J.h.b.b.b.b.b.b.b.",
"b.b.b.b.b.b.b.b.b.b.A.-   1.P f.b y.(.J.A.h.b.b.b.b.b.b.b.b.",
"b.b.b.b.b.b.b.b.h.E.X.    S a.b p.J.h.h.b.b.b.b.b.b.b.b.b.b.",
"b.b.b.b.b.b.b.h.E.@.      * 8.t.E.h.b.b.b.b.b.b.b.b.b.b.b.b.",
"b.b.b.b.b.b.b.b.).x @.a   $ h.A.h.b.b.b.b.b.b.b.b.b.b.b.b.b.",
"b.b.b.b.b.b.b.A.M < M.8.  * M.b.b.b.b.b.b.b.b.b.b.b.b.b.b.b.",
"b.b.b.b.b.b.M.y.6 h.(.<.    V J.h.b.b.b.b.b.b.b.b.b.b.b.b.b.",
"b.b.b.b.b.f.'.e M J.M.<.    8 E.h.b.b.b.b.b.b.b.b.b.b.b.b.b.",
"b.b.b.b.h.J.7.; E.E.(.b.e   a ).h.b.b.b.b.b.b.b.b.b.b.b.b.b.",
"b.b.b.b.A.t.* O e u e c 7     O.E.h.b.b.b.b.b.b.b.b.b.b.b.b.",
"b.b.b.b.A.J S E.t.y.t.h.S     J (.h.b.b.b.b.b.b.b.b.b.b.b.b.",
"b.b.b.A.M.> 5.J.M.M.M.E.8.;   I ].h.b.b.b.b.b.b.b.b.b.b.b.b.",
"b.b.f.h.a 6 (.h.b.b.M.f.M.e   $ <.A.b.b.b.b.b.b.b.b.b.b.b.b.",
"h.A.8.8 8 < X.E.h.b.A.8.7 e e 6 u h.M.b.b.b.b.b.b.b.b.b.b.b.",
"b.b.M.E.E.E.A.b.b.b.b.M.J.E.E.(.E.b.b.b.b.b.b.b.b.b.b.b.b.b.",
"b.b.b.h.h.h.b.b.b.b.b.b.h.h.h.h.h.b.b.b.b.b.b.b.b.b.b.b.b.b.",
"b.b.b.b.b.b.b.b.b.b.b.b.b.b.b.b.b.b.b.b.b.b.b.b.b.b.b.b.b.b."
};
