/* XPM */
const char *arcOp_xpm[] = {
/* columns rows colors chars-per-pixel */
"30 30 77 1",
"  c Gray0",
". c #020202",
"X c #070707",
"o c Gray8",
"O c Gray10",
"+ c #202020",
"@ c #222222",
"# c Gray14",
"$ c #252525",
"% c Gray15",
"& c #282828",
"* c Gray16",
"= c Gray17",
"- c #2d2d2d",
"; c Gray19",
": c #434343",
"> c Gray29",
", c #4b4b4b",
"< c #4e4e4e",
"1 c Gray31",
"2 c #505050",
"3 c #515151",
"4 c Gray34",
"5 c Gray41",
"6 c #6a6a6a",
"7 c #6d6d6d",
"8 c #797979",
"9 c #7b7b7b",
"0 c #808080",
"q c #8d8d8d",
"w c #9d9d9d",
"e c #a2a2a2",
"r c #a5a5a5",
"t c #aaaaaa",
"y c #acacac",
"u c #afafaf",
"i c Gray69",
"p c Gray72",
"a c #bebebe",
"s c #c0c0c0",
"d c #cacaca",
"f c #cbcbcb",
"g c #cecece",
"h c Gray81",
"j c #d0d0d0",
"k c Gray82",
"l c #d2d2d2",
"z c #d3d3d3",
"x c Gray83",
"c c #d5d5d5",
"v c Gray84",
"b c #d7d7d7",
"n c #d8d8d8",
"m c Gray85",
"M c #dadada",
"N c Gray86",
"B c gainsboro",
"V c #dddddd",
"C c Gray87",
"Z c #dfdfdf",
"A c Gray88",
"S c #e1e1e1",
"D c #e2e2e2",
"F c Gray89",
"G c #e4e4e4",
"H c Gray90",
"J c #e6e6e6",
"K c #e7e7e7",
"L c Gray91",
"P c #e9e9e9",
"I c #eaeaea",
"U c Gray92",
"Y c #ececec",
"T c #efefef",
"R c Gray94",
"E c Gray95",
"W c #f3f3f3",
/* pixels */
"vvvvvvvvvvvvvvvvvvvvvvvvvvvvvv",
"vvvvvvvvvvvvvvvvvvvvvvvvvvvvvv",
"vvvvvvvvvvvvvvvvvvvvvvvvvvvvvv",
"vvvvvvvkvvvvvvvvvvvvvvvvvvvvvv",
"vvvvvvBFkkkvvvvvvvvvvvvvvvvvvv",
"vvvvvNarIIIkkvvvvvvvvvvvvvvvvv",
"vvvvkI6 667GYBvkvvvvvvvvvvvvvv",
"vvvvvNswX  &OtFFvvvvvvvvvvvvvv",
"vvvvvvBFvvg&& %uvNvvvvvvvvvvvv",
"vvvvvvvkvNNGWq, 4Gvvvvvvvvvvvv",
"vvvvvvvvvvvkgINi@:Yvvvvvvvvvvv",
"vvvvvvvvvvvvvkvGvo,Ikvvvvvvvvv",
"vvvvvvvvvvvvvvvkBv@1Gvvvvvvvvv",
"vvvvvvvvvvvvvvvvkNNO3Bkvvvvvvv",
"vvvvvvvvvvvvvvvvvkBv 8Wgvvvvvv",
"vvvvvvvvvvvvvvvvvvvB3%fNvvvvvv",
"vvvvvvvvvvvvvvvvvvkFp eFvvvvvv",
"vvvvvvvvvvvvvvvvvvvkG6 kNvvvvv",
"vvvvvvvvvvvvvvvvvvvkI6 Bvvvvvv",
"vvvvvvvvvvvvvvvvvvvvNfO1Gkvvvv",
"vvvvvvvvvvvvvvvvvvvvkW-%Gvvvvv",
"vvvvvvvvvvvvvvvvvvvvkG%;Wkvvvv",
"vvvvvvvvvvvvvvvvvvvvvBu 0Gkvvv",
"vvvvvvvvvvvvvvvvvvvvvvB%9Gkvvv",
"vvvvvvvvvvvvvvvvvvvvvvvIFvvvvv",
"vvvvvvvvvvvvvvvvvvvvvvvkkvvvvv",
"vvvvvvvvvvvvvvvvvvvvvvvvvvvvvv",
"vvvvvvvvvvvvvvvvvvvvvvvvvvvvvv",
"vvvvvvvvvvvvvvvvvvvvvvvvvvvvvv",
"vvvvvvvvvvvvvvvvvvvvvvvvvvvvvv"
};
