/* XPM */
const char *arrow_xpm[] = {
/* columns rows colors chars-per-pixel */
"16 16 2 1",
"  c Yellow",
". c Gray0",
/* pixels */
"                ",
"                ",
"                ",
"   ..           ",
"   .........    ",
"    .......     ",
"    ....        ",
"    .....       ",
"     ....       ",
"     . ...      ",
"     .  ...     ",
"     ..  ...    ",
"      .   ...   ",
"           ...  ",
"            ... ",
"                "
};
