/* XPM */
const char *boxOp_xpm[] = {
/* columns rows colors chars-per-pixel */
"30 30 42 1",
"  c Gray0",
". c Gray1",
"X c Gray2",
"o c #1e1e1e",
"O c Gray15",
"+ c Gray16",
"@ c #2c2c2c",
"# c #323232",
"$ c #686868",
"% c Gray41",
"& c Gray42",
"* c #9f9f9f",
"= c #a2a2a2",
"- c #a4a4a4",
"; c Gray65",
": c #a7a7a7",
"> c Gray66",
", c #a9a9a9",
"< c Gray69",
"1 c #b6b6b6",
"2 c Gray74",
"3 c Gray81",
"4 c Gray82",
"5 c #d2d2d2",
"6 c #d3d3d3",
"7 c Gray83",
"8 c #d5d5d5",
"9 c Gray84",
"0 c #d8d8d8",
"q c #dadada",
"w c Gray86",
"e c gainsboro",
"r c Gray87",
"t c #dfdfdf",
"y c #e2e2e2",
"u c Gray89",
"i c Gray90",
"p c #e6e6e6",
"a c Gray91",
"s c #e9e9e9",
"d c #eaeaea",
"f c #f6f6f6",
/* pixels */
"999999999999999999999999999999",
"999999999999999999999999999999",
"999999999999999999999999999999",
"999999999999999999999999999999",
"999999999999999999999999999999",
"999999999999999999999999999999",
"999999996666666666666666999999",
"9999999tyyyyyyyyyyyyyyyyt99999",
"999999q<=>----->-->----*2q6999",
"999996i#..............X.&s6999",
"999996s@o1-->--->---->-.&s6999",
"999996sO+ftyyyyyyyyyyit.&s6999",
"999996sOOi3666666666693.&s6999",
"999996sOOs6999999999996.&s6999",
"999996sOOs69999999999q6.&s6999",
"999996sOOs69999999999q6.&s3999",
"999996sOOs69999999999q6.&s6999",
"999996sOOs69999999999q6.&s6999",
"999996sOOi3666666666696.&s6999",
"999996sO+ftyyyyyyyyyyyt.&s6999",
"999996s@o1---->------>-.&s6999",
"999996i#..............X.&s6999",
"999999q<=>->----->->>--*2q9999",
"9999999tiyyyyyyyyyyyyyyyt99999",
"999999996666666666666666999999",
"999999999999999999999999999999",
"999999999999999999999999999999",
"999999999999999999999999999999",
"999999999999999999999999999999",
"999999999999999999999999999999"
};
