/* XPM */
const char *brushOp_xpm[] = {
/* columns rows colors chars-per-pixel */
"30 30 243 2",
"   c #090918",
".  c #08083d",
"X  c #38331f",
"o  c #202020",
"O  c #2e2723",
"+  c #3a3634",
"@  c #3b3835",
"#  c #313b3d",
"$  c #161648",
"%  c #0e0e63",
"&  c #1a1a6f",
"*  c #1d1d73",
"=  c #2d2d6b",
"-  c #292977",
";  c #242473",
":  c #354143",
">  c #3f4d4f",
",  c #452b17",
"<  c #49392c",
"1  c #44352d",
"2  c #403a36",
"3  c #423e3b",
"4  c #6f3006",
"5  c #6c340f",
"6  c #663517",
"7  c #633616",
"8  c #6f3c1a",
"9  c #72370f",
"0  c #7a380c",
"q  c #584739",
"w  c #77421c",
"e  c #69513e",
"r  c #7d4622",
"t  c #444a4b",
"y  c #404d50",
"u  c #445356",
"i  c #46595f",
"p  c #4e5455",
"a  c #48565a",
"s  c #505556",
"d  c #5b5756",
"f  c #5b5958",
"g  c #5b5c52",
"h  c #4e5d61",
"j  c #5c5f65",
"k  c #546468",
"l  c #596a6e",
"z  c #5a6c70",
"x  c #625b55",
"c  c #656559",
"v  c #6e6d56",
"b  c #7b7e7f",
"n  c #1b23b5",
"m  c #272b9a",
"M  c #322e8f",
"N  c #2d2cac",
"B  c #2a2ab3",
"V  c #3131af",
"C  c #3737b7",
"Z  c #3e3eb0",
"A  c #3c3cbb",
"S  c #3a3ad8",
"D  c #3f3fff",
"F  c #474dee",
"G  c #4040ff",
"H  c #4444ff",
"J  c #4747ff",
"K  c #4747f9",
"L  c #434bfc",
"P  c #4e4df6",
"I  c #4949ff",
"U  c #4e4eff",
"Y  c #4a56ff",
"T  c #5050eb",
"R  c #5151ff",
"E  c #5353fe",
"W  c #5454fe",
"Q  c #5352f8",
"!  c #5a5aff",
"~  c #5d5cff",
"^  c #5959fa",
"/  c #7a60d1",
"(  c #6e6eee",
")  c #6666f8",
"_  c #6361ff",
"`  c #6b6bf5",
"'  c #7b65ef",
"]  c #7070ef",
"[  c #7878ef",
"{  c #7979f3",
"}  c #7272f3",
"|  c #6a8186",
" . c #6e8990",
".. c #748b91",
"X. c #7a9297",
"o. c #7a949b",
"O. c #8e4616",
"+. c #944f1a",
"@. c #874a20",
"#. c #8a4a21",
"$. c #904e22",
"%. c #945224",
"&. c #b4642b",
"*. c #bc652c",
"=. c #bd682f",
"-. c #c3682a",
";. c #ce7232",
":. c #df7a2c",
">. c #e6772d",
",. c #e77920",
"<. c #e2782c",
"1. c #e8772c",
"2. c #eb792b",
"3. c #ea7f33",
"4. c #f07b30",
"5. c #9266b1",
"6. c #986abd",
"7. c #848377",
"8. c #929376",
"9. c #ed8038",
"0. c #eb8738",
"q. c #ff8d2a",
"w. c #f38439",
"e. c #f38c3d",
"r. c #f9873b",
"t. c #fd883b",
"y. c #ff893c",
"u. c #ff8d3e",
"i. c #f98a3d",
"p. c #fd8534",
"a. c #ff932d",
"s. c #fe913f",
"d. c #f8913f",
"f. c #fe8d42",
"g. c #ff9242",
"h. c #ff9642",
"j. c #ff9842",
"k. c #fe9a45",
"l. c #ff9e47",
"z. c #ff9f49",
"x. c #e3947f",
"c. c #fda148",
"v. c Gray51",
"b. c #859198",
"n. c #8b969d",
"m. c #8e989f",
"M. c #9e9e8e",
"N. c #98988c",
"B. c #9f9b9a",
"V. c #9a9594",
"C. c #8eacb3",
"Z. c #98a4ac",
"A. c #9da1a4",
"S. c #92b3bc",
"D. c #a29d9c",
"F. c #a5a58d",
"G. c #a3a09f",
"H. c #a4a2a2",
"J. c #ababa4",
"K. c #aaa9a9",
"L. c #8d8ded",
"P. c #8282ed",
"I. c #8585f0",
"U. c #8787fa",
"Y. c #8f8ff1",
"T. c #9393eb",
"R. c #9595eb",
"E. c #9f9fe6",
"W. c #9b9be8",
"Q. c #8eb9c9",
"!. c #91bac8",
"~. c #9fbfc6",
"^. c #babadf",
"/. c #b3b4dd",
"(. c #a1a1e6",
"). c #b3b3e1",
"_. c #b7b7e0",
"`. c #bab9e2",
"'. c #b5bae5",
"]. c #a2c2ca",
"[. c #a6c7cf",
"{. c #a5c6ce",
"}. c #a7c8d0",
"|. c #aaccd5",
" X c #a8c8d0",
".X c #add0d9",
"XX c #b0cfd6",
"oX c #b1d4dd",
"OX c #b5d7e0",
"+X c #b6dae3",
"@X c #b7dbe4",
"#X c #b9dde6",
"$X c #bde2eb",
"%X c #c8c6c5",
"&X c #cfcece",
"*X c #c3c3c2",
"=X c #ccccd9",
"-X c #c5cbd1",
";X c #ced4cf",
":X c #ccd2d7",
">X c #d9d9cd",
",X c Gray82",
"<X c #d3d3d3",
"1X c #d3d3d7",
"2X c #d3d3d4",
"3X c #d5d5d3",
"4X c #d5d5d5",
"5X c #d5d5d6",
"6X c Gray84",
"7X c #d6d6d5",
"8X c #d6d7d8",
"9X c #d9d9d5",
"0X c #d9d9d6",
"qX c #ddddd4",
"wX c #dcdcd2",
"eX c #dad9d9",
"rX c #dddcdc",
"tX c #d3d8db",
"yX c #dedee2",
"uX c #dddde9",
"iX c #d2d4f9",
"pX c #c3eaf3",
"aX c #dfe2e4",
"sX c #e3e3d2",
"dX c #e1e1d3",
"fX c #e6e6d1",
"gX c #e1e1d5",
"hX c #e4e1df",
"jX c #e9e6db",
"kX c #e1e2e2",
"lX c #e3e3e7",
"zX c #e5e5e6",
"xX c #e5e5ea",
"cX c #e6e9ea",
"vX c #e8e5e3",
"bX c #eae6e4",
"nX c #ecedef",
"mX c #e9e9ea",
"MX c #eff1f1",
"NX c #f4f4e8",
"BX c #f7f7f8",
"VX c #fbf8f6",
"CX c #f2f2f5",
/* pixels */
"[.[.[.[.].#Xu K.zX<X6X6X6X6X6X6X6X6X6X6X6X6X6X6X6X6X6X6X6X6X",
"].[.[.[.[.|.C.s 0X6X6X6X6X6X6X6X6X6X6X6X6X6X6X6X6X6X6X6X6X6X",
"$X|.[.[.}.~.pX# V.nX<X6X6X6X6X6X6X6X6X6X6X6X6X6X6X6X6X6X6X6X",
": C.oX].].+XX.a y H.mX&X6X6X6X6X6X6X6X6X6X6X6X6X6X6X6X6X6X6X",
"D.p S.@X+XX.> oX+X: H.mX<X6X6X6X6X6X6X6X6X6X6X6X6X6X6X6X6X6X",
"MX%Xt  ...u |.@Xl | h B.mX<X6X6X6X6X6X6X6X6X6X6X6X6X6X6X6X6X",
"&XaX*Xd o |.#Xl z +X|.u H.rX<X<X<X<X<X6X6X6X6X6X6X6X6X6X6X6X",
"6X6X0XBXK.h | l +X].OXo.d VXhXvXvXvXbX6X6X6X6X6X6X6X6X6X6X6X",
"6X6X6X&XzXH.: oX X[.].#Xk j Z.n.n.m.b.1X0X<X6X6X6X6X6X6X6X6X",
"6X6X6X6X<XmXH.y .X}.XX!.q 0 5 9 9 5 4 x aXkX3X6X6X6X6X6X6X6X",
"6X6X6X6X6X<XmXG.y oXQ.< <.z.k.g.k.c.l.-.O b cX6X6X6X6X6X6X6X",
"6X6X6X6X6X6X<XmXD.i e 2.g.w.g.$.&.;.u.e.p.O.v.eX6X6X6X6X6X6X",
"6X6X6X6X6X6X6X<XmXA.r u.y.u.y.s.u.7 &.h.i.j., :XeX6X6X6X6X6X",
"6X6X6X6X6X6X6X6X&XMX3 1.f.9.r.t.u.d.6 *.u.u.-.f kX<X6X6X6X6X",
"6X6X6X6X6X6X6X6X<XkX@ >.h.w e.y.y.i.u.8 e.u.3.+ kX<X6X6X6X6X",
"6X6X6X6X6X6X6X6X<XlX+ 9.u.e.%.h.t.t.u.e.%.g.,.2 nX<X6X6X6X6X",
"6X6X6X6X6X6X6X6X6XrXH.7 j.t.@.#.s.s.y.w.=.a.6.m 7.zX<X6X6X6X",
"6X6X6X6X6X6X6X6X6X0XtX1 :.g.h.@.*.;.f.i.a.5.Y N c nX<X6X6X6X",
"6X6X6X6X6X6X6X6X6X1XeX-X< <.h.h.w.+.a.q.5.L ~ N c nX<X6X6X6X",
"6X6X6X6X6X1X0XqXqXqXwXjX;X< 6 4.f.x.' / L Q ! B c mX<X6X6X6X",
"6X6X6X6X1XfX=X)._._._./.`.'.J.X M B n F _ W P ! & M.lX6X6X6X",
"6X6X6XqXqXE.` G I I J I J U Y.iX8.g v = % C ! ~ & M.zX<X6X6X",
"6X6XqX(.) J I W W R R R R W G Q U.xXCXJ.F.j . ! * N.uX3X6X6X",
"1XqX^.J I W W R R R R R R R W R D ] >XyXNXI.S - $ Z W P.sX6X",
"1XqX).G W R R R R R R R R R R W I ) sX1X[ J ! T   A ! J { 6X",
"6X6X0XI.U I U W W W W W W W I U ! ^.0X0XW.I K R ; V R I W.0X",
"6X6X0X0X=X{ ^ G J J J J J I ) (.wX0X6X6XfXE.) } ( ] ) E.fX6X",
"6X6X6X6X6XfX^.L.T.T.T.T.T.T.qXqX6X6X6X6X6XqXsXqXdXdXsXqX6X6X",
"6X6X6X6X6X1X0XfXsXsXsXsXsXsX6X6X6X6X6X6X6X6X6X6X6X1X1X6X6X6X",
"6X6X6X6X6X6X6X1X1X1X1X1X1X1X6X6X6X6X6X6X6X6X6X6X6X6X6X6X6X6X"
};
