/* XPM */
const char *eraseOp_xpm[] = {
/* columns rows colors chars-per-pixel */
"30 30 231 2",
"   c #0f101a",
".  c #0c0c37",
"X  c #161630",
"o  c #1a1a37",
"O  c #1d2222",
"+  c #2d1c00",
"@  c #221414",
"#  c #27272e",
"$  c #272733",
"%  c #302323",
"&  c #33333a",
"*  c #35353b",
"=  c #38383e",
"-  c #171740",
";  c #191940",
":  c #1c1c49",
">  c #1b1b55",
",  c #100f6e",
"<  c #17176f",
"1  c #18186f",
"2  c #1a1a6e",
"3  c #131376",
"4  c #1b2374",
"5  c #202048",
"6  c #3a3a40",
"7  c #363653",
"8  c #202061",
"9  c #3c3c60",
"0  c #433b0f",
"q  c #40351e",
"w  c #463b1a",
"e  c #6e3836",
"r  c #623a3b",
"t  c #4d4126",
"y  c #43413b",
"u  c #4b4435",
"i  c #5a4721",
"p  c #5e4a21",
"a  c #614a14",
"s  c #6c5310",
"d  c #7d5e1f",
"f  c #484641",
"g  c #4e504f",
"h  c #4d564d",
"j  c #4f5257",
"k  c #504040",
"l  c #55504a",
"z  c #55575a",
"x  c #56565d",
"c  c #404571",
"v  c #595966",
"b  c #665e51",
"n  c #754d45",
"m  c #646456",
"M  c #636359",
"N  c #69695d",
"B  c #71715b",
"V  c #636770",
"C  c #656870",
"Z  c #706f68",
"A  c #777775",
"S  c #7f7f7b",
"D  c #79797a",
"F  c #1e1e9d",
"G  c #25258f",
"H  c #2d2d97",
"J  c #2e2e97",
"K  c #2a309c",
"L  c #2929af",
"P  c #2e2eae",
"I  c #2c2cb2",
"U  c #2d2dbb",
"Y  c #3e3eff",
"T  c #545486",
"R  c #5d638a",
"E  c #6c6c96",
"W  c #757c89",
"Q  c #4545da",
"!  c #4141e5",
"~  c #4242ea",
"^  c #4242ec",
"/  c #4848ea",
"(  c #4343ff",
")  c #4141fe",
"_  c #4747fb",
"`  c #4747fd",
"'  c #4444ff",
"]  c #4e4ef6",
"[  c #4949ff",
"{  c #4b4bff",
"}  c #4a4afd",
"|  c #4f4ff9",
" . c #4f4ffa",
".. c #4f4fff",
"X. c #4d4dfe",
"o. c #5050fb",
"O. c #5252fa",
"+. c #5050fc",
"@. c #5151ff",
"#. c #5252ff",
"$. c #5353fc",
"%. c #5555fa",
"&. c #5454ff",
"*. c #5656ff",
"=. c #5655fd",
"-. c #5959fa",
";. c #5959ff",
":. c #5a5afe",
">. c #5c5cff",
",. c #5d5dfc",
"<. c #6060ff",
"1. c #6666f8",
"2. c #6967ff",
"3. c #6f6ff6",
"4. c #80601d",
"5. c #8d6814",
"6. c #92703b",
"7. c #a57e1b",
"8. c #a07b29",
"9. c #a65252",
"0. c #b66859",
"q. c #c66466",
"w. c #c76c6c",
"e. c #b88828",
"r. c #80807e",
"t. c #c19323",
"y. c #cba42a",
"u. c #e0ac30",
"i. c #e6ad36",
"p. c #f1b735",
"a. c #c89d74",
"s. c #ffc843",
"d. c #ffc945",
"f. c #ffd043",
"g. c #ffd044",
"h. c #ffd548",
"j. c #ffdb6d",
"k. c #ffe350",
"l. c #828790",
"z. c #929281",
"x. c #9b9b8b",
"c. c #9f9f8f",
"v. c #9c9c8c",
"b. c #9a9694",
"n. c #989aa2",
"m. c #999da9",
"M. c #9ea3a5",
"N. c #a6a696",
"B. c #adad9f",
"V. c #a1a2a6",
"C. c #a5a7ae",
"Z. c #a5a9aa",
"A. c #adada7",
"S. c #aaadad",
"D. c #a7adb7",
"F. c #a8aeba",
"G. c #ababb4",
"H. c #b8b8a8",
"J. c #8585ee",
"K. c #8b8be9",
"L. c #8989ee",
"P. c #b8b8db",
"I. c #babade",
"U. c #ff9ea2",
"Y. c #c5c5bb",
"T. c #c5c5bd",
"R. c #ffd38f",
"E. c #c3c6c6",
"W. c #c2c3cd",
"Q. c #cbcbc1",
"!. c #cbcbc2",
"~. c #ccccc4",
"^. c #c8caca",
"/. c #cdcdcd",
"(. c Gray81",
"). c #cececc",
"_. c #c1c1dd",
"`. c #c3c3dc",
"'. c #cfcfd1",
"]. c #cdced5",
"[. c #d0d0ca",
"{. c #d4d4c9",
"}. c #d9d9ce",
"|. c Gray82",
" X c #d2d3d3",
".X c #d1d2d2",
"XX c #d1d1d7",
"oX c #d3d3d7",
"OX c #d4d4d3",
"+X c #d5d5d4",
"@X c #d5d5d6",
"#X c #d7d5d5",
"$X c Gray84",
"%X c #d6d6d5",
"&X c #d7d7d9",
"*X c #d6d7d9",
"=X c #d1d4d9",
"-X c #d7d8d8",
";X c #dbdbd5",
":X c #d8d8d6",
">X c #dfdfd3",
",X c #ddddd4",
"<X c #d9d9db",
"1X c #dad9d9",
"2X c #dbdbdd",
"3X c #dbdbde",
"4X c #dcddde",
"5X c #dfdedf",
"6X c #deddde",
"7X c #c9c8ee",
"8X c #e7e7d1",
"9X c #e2e2db",
"0X c #e2e1de",
"qX c #e1e1e1",
"wX c #e0e0e3",
"eX c #e3e3e7",
"rX c #e5e3e1",
"tX c #e5e5e3",
"yX c #e7e6e3",
"uX c #e7e7e7",
"iX c Gray90",
"pX c #e4e4e8",
"aX c #e6e6e9",
"sX c #e9e9eb",
"dX c #ebeae9",
"fX c #ececee",
"gX c #ececec",
"hX c #f1f1e5",
"jX c #f3f2ef",
"kX c #f9f7ee",
"lX c #f4f4f6",
/* pixels */
"0XW.0 j.a.f lX/.+X+X*X+X+X+X*X+X+X+X*X*X+X+X*X+X+X+X*X+X*X+X",
"+X4XZ 6.R.d l.sX|.+X+X+X*X+X*X+X*X+X+X+X+X*X+X+X*X+X*X+X+X+X",
"|.rXF.i d.t.l -X+X+X+X*X+X*X+X+X*X+X+X+X+X+X*X*X+X*X+X+X+X*X",
"+X|.jXV 7.k.s m.yXOX+X+X+X+X+X*X+X+X*X*X*X+X+X+X+X+X+X*X+X*X",
"+X+X+XE.t p.i.u =X1X+X+X*X*X+X+X*X+X+X+X+X+X+X*X*X+X+X*X+X+X",
"+X+X|.sXz e.f.a V.2X+X+X+X+X+X*X+X+X*X+X*X*X+X+X*X+X+X*X+X*X",
"*X*X+X1X].w g.u.y fX|.+X+X+X+X*X+X*X+X*X+X+X*X+X+X+X+X+X+X+X",
"+X+X+X+X4XD 5.h.4.W gX|.*X*X+X+X+X*X+X+X+X*X+X+X+X*X*X+X*X+X",
"+X*X*X+XrXD.p s.y.b *X+X+X+X+X*X+X+X*X+X+X*X+X*X+X+X+X*X+X*X",
"+X+X+X+X'.jXC 7.8.+ C.tX|.|. X X|.|.+X|.+X+X+X*X*X*X+X+X+X+X",
"*X+X*X+X+X+X^.q   n.g |.4XpXpXpXpXpXpXuX X|.|.+X+X+X*X+X*X+X",
"*X+X+X+X+X|.sXj b.E.% Z.~.z.v.v.v.v.x.v.sXfXsX+X+X*X+X+X*X+X",
"+X+X+X*X*X+X*X#XO k q.n c , 2 2 2 2 < 2 M m N 0XwX*X+X+X+X+X",
"+X*X+X+X+X+X1X^.@ w.U.0.4 2.-.>.>.>.>.;.I L P $ S }.2X|.*X+X",
"*X+X*X+X+X*X+X4XS.r 9.e K *.] | | | | | ;.;.-._ J X A.pX|.+X",
"+X+X*X+X+X+X+X|.uXM.h R @. .@.@.@.@.@.@.@.@.@.*.*.@.8 B.eX|.",
"+X*X+X+X*X*X+X*X X5XkX7X' >.@.@.@.@.@.@.@.@.@.@.@.@.O.> H.wX",
"+X+X*X+X+X+X+X+X+X+X'.].,XP.@.@.@.@.@.@.@.@.@.@.@.| >.G A 4X",
"*X*X+X+X+X+X+X*X+X+X,X8X_.*. .@.@.@.@.@.@.@.@.@.@.@.| ;.; !.",
"+X+X+X*X*X*X+X+X,X>XJ.3.-.} @.@.@.@.@.@.@.@.@.@.@.@.O.*.- !.",
"+X+X+X*X+X+X+XoX_.L.' }  .@.@.@.@.@.@.@.@.@.@.@.@.@.@./ 7 [.",
"*X*X+X+X+X*X1XoX( Y @.*.@.@.@.@.@.@.@.@.@.@.@.@.@.] <.2 N.pX",
"+X+X*X+X+X+X+X+XP._.1. .@.@.@.@.@.@.@.@.@.@.@.| %.<.U v +X+X",
"+X*X+X+X*X*X+X1XhXK.} O.@.@.@.@.@.@.@.@.O.O.| <.Q F x 0X1X+X",
"+X+X*X+X+X*X*X{.T ( *.*.*.*.@.*.*.*.*.@.*.*.%.3 9 B 4X*X+X+X",
"*X+X*X+X+X*X*X/.G.E . o J _ ! ~ ~ ~ ^ ! : - 5 z.Y.lX|.+X+X*X",
"+X*X+X+X+X+X+X*XuX{.Y.}.r.# = * * * & 6 Y.!.!.pX2X'.+X+X+X+X",
"+X+X+X*X*X+X+X+X|.*X2X1X4XuXtXuXtXtXtXtX1X2X2X X+X+X*X+X*X+X",
"*X+X*X+X+X*X+X*X+X+X+X+X+X X X X|.|. X X+X+X+X+X+X+X+X*X+X+X",
"*X+X+X+X+X+X+X*X+X+X*X+X+X*X*X+X+X+X+X*X+X*X*X+X+X+X+X*X+X*X"
};
