/* XPM */
const char * ffillOp_xpm[] = {
"40 40 85 1",
" 	c #C0C0C0C0C0C0",
".	c #000000000000",
"X	c #FFFFFFFFFFFF",
"o	c #FFFF65650000",
"O	c #FFFF18180000",
"+	c #00000000FFFF",
"@	c #0C0CFFFF0000",
"#	c #FFFF0000FFFF",
"$	c #2424FFFF0000",
"%	c #8282FFFF0000",
"&	c #DBDBFFFF0000",
"*	c #FFFFFFFF0000",
"=	c #FFFFBEBE0000",
"-	c #FFFF8E8E0000",
";	c #4141FFFF0000",
":	c #F3F3FFFF0000",
">	c #FFFF7D7D0000",
",	c #9A9AFFFF0000",
"<	c #0000FFFF0C0C",
"1	c #6565FFFF0000",
"2	c #A6A6FFFF0000",
"3	c #E7E7FFFF0000",
"4	c #FFFFF3F30000",
"5	c #FFFFB2B20000",
"6	c #FFFF71710000",
"7	c #4D4DFFFF0000",
"8	c #0000FFFF0000",
"9	c #1818FFFF0000",
"0	c #3030FFFF0000",
"q	c #8E8EFFFF0000",
"w	c #B2B2FFFF0000",
"e	c #FFFFCFCF0000",
"r	c #FFFFA6A60000",
"t	c #7171FFFF0000",
"y	c #FFFFE7E70000",
"u	c #C3C3FFFF0000",
"i	c #FFFFDBDB0000",
"p	c #FFFF59590000",
"a	c #CFCFFFFF0000",
"s	c #FFFF9A9A0000",
"d	c #FFFF4D4D0000",
"f	c #FFFF3C3C0000",
"g	c #5959FFFF0000",
"h	c #8E8E0000FFFF",
"j	c #7D7D0000FFFF",
"k	c #59590000FFFF",
"l	c #24240000FFFF",
"z	c #0C0C0000FFFF",
"x	c #0000FFFFDBDB",
"c	c #0000FFFF9A9A",
"v	c #0000FFFF7171",
"b	c #0000FFFF3030",
"n	c #FFFF0000E7E7",
"m	c #F3F30000FFFF",
"M	c #CFCF0000FFFF",
"N	c #9A9A0000FFFF",
"B	c #71710000FFFF",
"V	c #65650000FFFF",
"C	c #3C3C0000FFFF",
"Z	c #18180000FFFF",
"A	c #0000FFFFE7E7",
"S	c #0000FFFFB2B2",
"D	c #0000FFFF7D7D",
"F	c #0000FFFF5959",
"G	c #0000FFFF3C3C",
"H	c #FFFF0000DBDB",
"J	c #E7E70000FFFF",
"K	c #A6A60000FFFF",
"L	c #4D4D0000FFFF",
"P	c #0000FFFFF3F3",
"I	c #0000FFFFCFCF",
"U	c #0000FFFF6565",
"Y	c #0000FFFF4D4D",
"T	c #0000FFFF2424",
"R	c #FFFF0000F3F3",
"E	c #BEBE0000FFFF",
"W	c #0000FFFFBEBE",
"Q	c #DBDB0000FFFF",
"!	c #B2B20000FFFF",
"~	c #0000FFFFA6A6",
"^	c #0000FFFF1818",
"/	c #0000FFFF8E8E",
"(	c #FFFF0000CFCF",
")	c #30300000FFFF",
"_	c #FFFF30300000",
"                                        ",
"                                        ",
"                                        ",
"                                        ",
"                                        ",
"                                        ",
"                                        ",
"             ..                         ",
"             .X..                       ",
"            .XXXX..                     ",
"            .XXXXXX..                   ",
"           ..XXXXXXXX..                 ",
"           .XXXXXXXXXXX..               ",
"          .XXXXXXXXXXXXX..              ",
"          .oO+@#$%&*=-#.  ;             ",
"         .:>*,;<123456.   7             ",
"         .88@@90qw:ero.  70             ",
"        .$;1t%q,3y=r>.   ;$             ",
"        .qu&:*:3ir>66.    ,,            ",
"       .%u&33:::=-6p.     aa            ",
"       ..a:*yii4=s66.     *3:           ",
"        ...-sr5e>op.       3:           ",
"          ..6>--odd.       3            ",
"            ...6df.        &    5       ",
"              .....       ,a   4        ",
"                ..        qu   *        ",
"                    9     %w&  :        ",
"                    @9$  gt2u     i5    ",
"                          %,2 a         ",
"                     0   tqw2,Xu   =    ",
"      h  jklz xcv b  907g%%q,,u&3*y     ",
"nmMNBBVVkVCZ+AxSDFG<@0;0;1q,2wwu33*y=r--",
"HJKjkLLCCClZzPAISUYT9;$;;g%,22w2ua&4i=s>",
"RJENBLlzPPAxWWWcDYbb<8;;;7t%,2u&::4=5-66",
"RQ!hjLl+AxWISSS~~vUYb^9071%,wwu3*4e5s>o6",
"nQKhjLCxW~~~//~SWDvvYb^@0tquuwua4ies>o6>",
"HJKhVCzAIS~c/Dv/~cc~Ub@9;1,2ua3*i5s--66p",
"(m!NV)+xIWS/UFUv/cSWDb$07g%wu&4i=5-->dpd",
"HJ!jklPI~~/vUUvD~SSSDY<$;g%wa&ye-6opopoo",
"RQKBLlP~ccUFDvv/WSSW/FT<@;1w&:erpddf_opo"};
