/* XPM */
const char *fillOp_xpm[] = {
/* columns rows colors chars-per-pixel */
"30 30 200 2",
"   c Gray0",
".  c #02021a",
"X  c #0b0b1f",
"o  c #1f1f1e",
"O  c #040431",
"+  c #252529",
"@  c #2a2a2b",
"#  c #2f2f2e",
"$  c #363623",
"%  c #383836",
"&  c Gray23",
"*  c #39393d",
"=  c #38383f",
"-  c #1c1c40",
";  c #191962",
":  c #1d1d62",
">  c #18186b",
",  c #1d1d6e",
"<  c #38384d",
"1  c #2e2e76",
"2  c Gray25",
"3  c #4b4b42",
"4  c #484848",
"5  c Gray30",
"6  c #4f4f4d",
"7  c #4e4e52",
"8  c #4d4d59",
"9  c #545442",
"0  c #565653",
"q  c #555555",
"w  c #5d5d5e",
"e  c #525266",
"r  c #787879",
"t  c #7c7c7a",
"y  c #232381",
"u  c #24248d",
"i  c #2d2d8f",
"p  c #2d2d91",
"a  c #363699",
"s  c #2828b7",
"d  c #3535c4",
"f  c #3737cb",
"g  c #3b3bff",
"h  c #4848d1",
"j  c #4646e8",
"k  c #4848eb",
"l  c #4141ff",
"z  c #4747ff",
"x  c #4d4df6",
"c  c #4848ff",
"v  c #4a4aff",
"b  c #4e4ef9",
"n  c #4d4dff",
"m  c #4f4ffc",
"M  c #4f4fff",
"N  c #5454f7",
"B  c #5252f8",
"V  c #5050fd",
"C  c #5151ff",
"Z  c #5353fe",
"A  c #5454fd",
"S  c #5555ff",
"D  c #5656fe",
"F  c #5959fd",
"G  c #5858ff",
"H  c #5b5bff",
"J  c #5e5ef9",
"K  c #5d5dff",
"L  c #5f5fff",
"P  c #6363f7",
"I  c #6060fb",
"U  c #6565f9",
"Y  c #6767f8",
"T  c #6b6bf7",
"R  c #6f6ff6",
"E  c #7575ee",
"W  c #7373f7",
"Q  c #7474f5",
"!  c #7878f3",
"~  c #878777",
"^  c #868674",
"/  c #838383",
"(  c #848484",
")  c #939387",
"_  c #909090",
"`  c Gray61",
"'  c #a0a098",
"]  c #a7a799",
"[  c #a4a49d",
"{  c #a6a69f",
"}  c #a1a1a2",
"|  c Gray64",
" . c #a6a6a7",
".. c #a4a4a4",
"X. c Gray67",
"o. c #aeaeaf",
"O. c #b4b4b1",
"+. c #8282ef",
"@. c #8787eb",
"#. c #8585ef",
"$. c #8787ee",
"%. c #8989ee",
"&. c #8888ec",
"*. c #8f8fec",
"=. c #9191eb",
"-. c #9797ea",
";. c #9898e6",
":. c #9d9de6",
">. c #9e9ee7",
",. c #9898e9",
"<. c #9d9de8",
"1. c #b6b6df",
"2. c #b9b9df",
"3. c #bcbcdf",
"4. c #bebedd",
"5. c #a1a1e7",
"6. c #a5a5e5",
"7. c #acace1",
"8. c #aeaee2",
"9. c #a5a5ff",
"0. c #b3b3e1",
"q. c #b5b5e0",
"w. c #b7b7e0",
"e. c #c4c4c0",
"r. c Gray78",
"t. c Gray77",
"y. c #cbcbc9",
"u. c #cbcbcb",
"i. c Gray81",
"p. c #c1c1dd",
"a. c #c3c3dd",
"s. c #c4c4db",
"d. c #c6c6db",
"f. c #c4c4dc",
"g. c #cacad0",
"h. c #ccccd3",
"j. c #cdcdd5",
"k. c #ceced4",
"l. c #ccccd9",
"z. c #d1d1d0",
"x. c #d3d3d1",
"c. c #d3d3d3",
"v. c #d1d1d7",
"b. c #d2d2d7",
"n. c #d5d5d3",
"m. c #d5d5d5",
"M. c #d4d4d6",
"N. c Gray84",
"B. c #d3d3d8",
"V. c #d7d7d9",
"C. c #d8d8d1",
"Z. c #dbdbd2",
"A. c #d9d9d5",
"S. c #d8d8d7",
"D. c #dadad5",
"F. c #dadad7",
"G. c #dfdfd3",
"H. c #ddddd4",
"J. c #deded4",
"K. c Gray85",
"L. c #dadad9",
"P. c Gray86",
"I. c #dbdbdc",
"U. c #dadadf",
"Y. c #dcdcda",
"T. c #dddddd",
"R. c #dededd",
"E. c Gray87",
"W. c #dbdbe1",
"Q. c #dddde0",
"!. c #ededcf",
"~. c #e1e1d3",
"^. c #e2e2d2",
"/. c #e0e0d4",
"(. c #e6e6d1",
"). c #e7e7d8",
"_. c #ebebd0",
"`. c #e8e8d0",
"'. c #ececd0",
"]. c #eeeedb",
"[. c #e1e1e1",
"{. c #e2e2e2",
"}. c #e3e3e5",
"|. c #e3e3e7",
" X c #e4e4e4",
".X c #e7e7e7",
"XX c #e6e6ee",
"oX c #e1e1ed",
"OX c #e9e9e9",
"+X c Gray92",
"@X c #e8e8ed",
"#X c #eaeaed",
"$X c #eaeaee",
"%X c Gray93",
"&X c #efefef",
"*X c #f0f0ee",
"=X c #f4f4e8",
"-X c #f3f3f3",
";X c #f2f2f4",
":X c Gray97",
/* pixels */
"N.N.N.N.N.N.N.N.N.N.N.N.N.N.N.N.N.N.N.N.N.N.N.N.N.N.N.N.N.N.",
"N.N.N.N.N.N.N.N.N.N.N.N.N.N.N.N.N.N.N.N.N.N.N.N.N.N.N.N.N.N.",
"N.N.N.N.N.N.N.N.N.N.N.N.N.N.N.N.N.N.N.N.N.N.N.N.N.N.N.N.N.N.",
"N.N.N.N.N.N.N.N.N.N.N.N.N.N.N.N.N.N.N.N.N.N.N.N.N.N.N.N.N.N.",
"N.N.N.N.N.N.N.N.N.N.{.{.i.N.N.N.N.N.N.N.N.N.N.N.N.N.N.N.N.N.",
"N.N.N.N.N.N.N.N.N.K.X...:XK.z.N.N.N.N.N.N.N.N.N.N.N.N.N.N.N.",
"N.N.N.N.N.N.N.N.z.%X& 5 q t.OXK.N.z.N.N.N.N.N.N.N.N.N.N.N.N.",
"N.N.N.N.N.N.N.z.OX/ ( E._ 4 q u.E..Xi.N.N.N.N.N.N.N.N.N.N.N.",
"N.N.N.N.N.N.N.z.K.2 ` .X.Xz.} @ r X.-XN.N.N.N.N.N.N.N.N.N.N.",
"N.N.N.N.N.N.z..X .o u.K.z.K.Y.*Xt 0 w t.E.N.N.N.N.N.N.N.N.N.",
"N.N.N.N.N.N.K.N.7 h.W.k.v.v.v.g.XXoX# + B.N.N.N.N.N.N.N.N.N.",
"N.N.N.N.N.N.I.[ - L B D D D D D C a ) v.E H.N.N.N.N.N.N.N.N.",
"N.N.N.N.N.z.%X% u D C C C C C C j * =X,.R ^.N.N.N.N.N.N.N.N.",
"N.N.N.N.z.$X^ i G C C C C C m G : } ).P U H.v.N.N.N.N.N.N.N.",
"N.N.N.N.N.F.e f D C C C C C C k < Z.K.N.c <.(.v.N.N.N.N.N.N.",
"N.N.N.z.}.' O N G B C C C b L , ] }.n.v.c T l.F.N.N.N.N.N.N.",
"N.N.N.N.N.I.5 . ; C L D x D d 8 K.N.N.F.5.g 1.H.F.F.N.N.N.N.",
"N.N.N.N.N.K.Q.e.$ 1 s h L L p ^ $Xz.N.^.2.$.^.H.s.s.F.N.N.N.",
"N.N.N.N.N.N.N.V.;X[ 9 X y > * %Xi.N.N.F.! *._.s.$.f.F.N.N.N.",
"N.N.N.N.N.N.N.N.z.{.XXO.3   o.V.G.G.N.F.l *.!.:.@._.H.H.N.N.",
"N.N.N.N.N.N.N.N.N.z.z..XI.k.].&.+.3.H.8.D c a.s.,.^.6.3.F.N.",
"v.N.N.N.N.N.N.N.N.N.N.n.F.V.Z.0.&.:.^.5.C c q.8.(.v.&.0.F.v.",
"H.H.H.H.H.N./.N.v.v.F.v.v.F.v._.<.v.F.=.m m W 9.;.^.a.8.(.H.",
"q.q.q.2.8.R f.T C C <.I m -.Q a.J m G c C C m G m C U q.q.q.",
"c z z z c m z m C C c m C c m z C C C C C C C m C C m c c z ",
"C D C C C C C C C C C C C C C C C C C C C C C C C C C C C C ",
"C C C C C C C C C C C C C C C C C C C C C C C C C C C C C C ",
"C C C C C C C C C C C C C C C C C C C C C C C C C C C C C C ",
"C C C C C C C C C C C C C C C C C C C C C C C C C C C C C C ",
"C C C C C C C C C C C C C C C C C C C C C C C C C C C C C C "
};
