/* XPM */
const char * filled_xpm[] = {
"20 16 2 1",
" 	c #FFFFFFFFFFFF",
".	c #000000000000",
"                    ",
"                    ",
"   ..............   ",
"   .. . . . . . .   ",
"   . . . . . . ..   ",
"   .. . . . . . .   ",
"   . . . . . . ..   ",
"   .. . . . . . .   ",
"   . . . . . . ..   ",
"   .. . . . . . .   ",
"   . . . . . . ..   ",
"   .. . . . . . .   ",
"   ..............   ",
"                    ",
"                    ",
"                    "};
