/* XPM */
const char *freehandOp_xpm[] = {
/* columns rows colors chars-per-pixel */
"30 30 90 1",
"  c #2a2a2a",
". c Gray18",
"X c Gray19",
"o c Gray20",
"O c #343434",
"+ c #393939",
"@ c #3a3a3a",
"# c Gray23",
"$ c #3c3c3c",
"% c Gray24",
"& c Gray25",
"* c Gray26",
"= c Gray27",
"- c #464646",
"; c Gray29",
": c Gray30",
"> c #4e4e4e",
", c #505050",
"< c #515151",
"1 c Gray32",
"2 c Gray35",
"3 c #5a5a5a",
"4 c #5b5b5b",
"5 c #5f5f5f",
"6 c #606060",
"7 c Gray38",
"8 c Gray39",
"9 c Gray46",
"0 c #767676",
"q c #777777",
"w c #7c7c7c",
"e c Gray49",
"r c Gray",
"t c #808080",
"y c #818181",
"u c #868686",
"i c #909090",
"p c Gray57",
"a c #a0a0a0",
"s c Gray63",
"d c #a2a2a2",
"f c Gray64",
"g c #a4a4a4",
"h c #a9a9a9",
"j c Gray67",
"k c Gray68",
"l c Gray73",
"z c #bbbbbb",
"x c Gray75",
"c c #c0c0c0",
"v c #c1c1c1",
"b c Gray76",
"n c #c3c3c3",
"m c Gray77",
"M c Gray79",
"N c #cbcbcb",
"B c Gray80",
"V c #cdcdcd",
"C c #cecece",
"Z c Gray81",
"A c #d0d0d0",
"S c Gray82",
"D c #d2d2d2",
"F c #d3d3d3",
"G c Gray83",
"H c #d5d5d5",
"J c Gray84",
"K c #d7d7d7",
"L c #d8d8d8",
"P c Gray85",
"I c #dadada",
"U c Gray86",
"Y c #dddddd",
"T c Gray87",
"R c #dfdfdf",
"E c Gray88",
"W c #e1e1e1",
"Q c #e2e2e2",
"! c Gray89",
"~ c #e4e4e4",
"^ c #e6e6e6",
"/ c #e7e7e7",
"( c Gray91",
") c #e9e9e9",
"_ c Gray92",
"` c Gray93",
"' c #eeeeee",
"] c #efefef",
"[ c #f8f8f8",
"{ c #f9f9f9",
/* pixels */
"JJJJJJJJJJJJJJJJJJJJJJJJJJJJJJ",
"JJJJJJJJJJJJJJJJJJJJJJJJJJJJJJ",
"JJJJJJJJJJJJJJJJJJJJJJJJJJJJJJ",
"JJJJJJJJJJJJJJJJJJJJJJJJJJJJJJ",
"JJJJJJJJJJJJJJJJJJJJJJJJJJJJJJ",
"JJJJJJJJJJJJJJJJJJJJJJJJJJJJJJ",
"JJJJJJJJJJJJJJJJJJJJJJJJJJJJJJ",
"JJJJJJJJJJJJJJJJJJSW_USJJJJJJJ",
"JJJJJJJJJJJJJJJJJS/jybWSJJJJJJ",
"JJJJJJJJJJJSJJJJS/a:7<bWJJJJJJ",
"JJJJJJJJJSW_USJJRj<W[b;MUJJJJJ",
"JJJJJJJJS/jybWZJJOWJZ/l%/SJJJJ",
"JJJJJJJS/g:7<m_'0rWSJUb+WSJJJJ",
"JJJJJJJWk=W[m=+oy/JJJUM%WSJJJJ",
"JJJJJJJW0r_MRZbbRJJJJUa2WJJJJJ",
"JJJJJJUb&'SJJUUUJJJJS'&ZUJJJJJ",
"JJJJJJUm%RJJJJJJJJJS_r0RJJJJJJ",
"JJJJJJUb&'SJJJJJJJSJ/=kWJJJJJJ",
"JJJJJJJJ7a/SSSSSSUWW<a/SJJJJJJ",
"JJJJJJS_a<UW//_/WSr j_SJJJJJJJ",
"JJJJJJJSWu.pppppiorSRSJJJJJJJJ",
"JJJJJJJJJWW522225WWUJJJJJJJJJJ",
"JJJJJJJJJJJ''''''SJJJJJJJJJJJJ",
"JJJJJJJJJJJSSSSSSJJJJJJJJJJJJJ",
"JJJJJJJJJJJJJJJJJJJJJJJJJJJJJJ",
"JJJJJJJJJJJJJJJJJJJJJJJJJJJJJJ",
"ZJJJJJJJJJJJJJJJJJJJJJJJJJJJJJ",
"lSUJJJJJJJJJJJJJJJJJJJJJJJJJJJ",
"xmJUJJJJJJJJJJJJJJJJJJJJJJJJJJ",
"bxmSJJJJJJJJJJJJJJJJJJJJJJJJJJ"
};
