/* XPM */
const char *lassoOp_xpm[] = {
/* columns rows colors chars-per-pixel */
"30 30 115 2",
"   c #3737ff",
".  c #3838ff",
"X  c #3a3aff",
"o  c #3b3bff",
"O  c #3c3cff",
"+  c #3d3dff",
"@  c #3e3eff",
"#  c #3f3fff",
"$  c #4040ff",
"%  c #4141ff",
"&  c #4242ff",
"*  c #4343ff",
"=  c #4444ff",
"-  c #4545ff",
";  c #4646ff",
":  c #4747ff",
">  c #4848ff",
",  c #4949ff",
"<  c #4a4aff",
"1  c #4b4bff",
"2  c #4c4cff",
"3  c #4d4dff",
"4  c #4e4eff",
"5  c #4f4fff",
"6  c #5050ff",
"7  c #5151ff",
"8  c #5252ff",
"9  c #5353ff",
"0  c #5454ff",
"q  c #5555ff",
"w  c #5656ff",
"e  c #5757ff",
"r  c #5858ff",
"t  c #5959ff",
"y  c #5a5aff",
"u  c #5c5cff",
"i  c #5d5dff",
"p  c #6060ff",
"a  c #6262ff",
"s  c #6363ff",
"d  c #6464ff",
"f  c #6565ff",
"g  c #6666ff",
"h  c #6969ff",
"j  c #6a6aff",
"k  c #6c6cff",
"l  c #6d6dff",
"z  c #6e6eff",
"x  c #7272ff",
"c  c #7474ff",
"v  c #7777ff",
"b  c #7878ff",
"n  c #7c7cff",
"m  c #7d7dff",
"M  c #7f7fff",
"N  c #8080ff",
"B  c #8181ff",
"V  c #8282ff",
"C  c #8383ff",
"Z  c #8484ff",
"A  c #8585ff",
"S  c #8686ff",
"D  c #8888ff",
"F  c #8989ff",
"G  c #8a8aff",
"H  c #8c8cff",
"J  c #8d8dff",
"K  c #8f8fff",
"L  c #9090ff",
"P  c #9191ff",
"I  c #9292ff",
"U  c #9393ff",
"Y  c #9494ff",
"T  c #9595ff",
"R  c #9696ff",
"E  c #9797ff",
"W  c #9898ff",
"Q  c #9999ff",
"!  c #9a9aff",
"~  c #9b9bff",
"^  c #9e9eff",
"/  c #9f9fff",
"(  c #a5a5ff",
")  c #aaaaff",
"_  c #acacff",
"`  c #adadff",
"'  c #b0b0ff",
"]  c #b2b2ff",
"[  c #b4b4ff",
"{  c #b5b5ff",
"}  c #b6b6ff",
"|  c #b8b8ff",
" . c #babaff",
".. c #bbbbff",
"X. c #bcbcff",
"o. c #bebeff",
"O. c #bfbfff",
"+. c #c4c4ff",
"@. c #c5c5ff",
"#. c #c6c6ff",
"$. c #cdcdff",
"%. c #d2d2ff",
"&. c #d3d3ff",
"*. c #d6d6ff",
"=. c #d9d9ff",
"-. c #dadaff",
";. c #ddddff",
":. c #e0e0ff",
">. c #e2e2ff",
",. c #eaeaff",
"<. c #ececff",
"1. c #ededff",
"2. c #fafaff",
"3. c #fcfcff",
"4. c Gray100",
/* pixels */
"7 7 7 7 7 7 7 7 7 7 7 7 7 7 7 7 7 7 7 7 7 7 7 7 7 7 7 7 7 7 ",
"7 7 7 7 7 7 7 0 0 7 7 7 7 7 7 7 7 7 7 7 0 7 0 0 7 7 7 7 7 7 ",
"7 7 7 7 7 7 : X : 0 7 7 7 7 7 7 7 7 7 7 : : X $ 7 7 7 7 7 7 ",
"7 7 7 7 0 : C @.W $ 0 7 7 7 7 7 7 7 3 0 L M @.W 1 7 7 7 7 7 ",
"7 7 7 0 1 0 z F ( T $ 1 0 7 7 7 0 7 7  .C f L M 3 u 1 0 7 7 ",
"7 7 0 $ C } $ $ 3 y 0 c X 3 0 1 $ $ W Z @ 3 $ 1 1 } C $ 0 7 ",
"7 7 : C  .1 7 0 7 3 0 ' o.z @ M o.7 1 1 7 7 7 7 3 1  .Z : 7 ",
"7 7 1 c 0 3 7 7 7 7 3 7 T 0 x  .M 0 7 7 7 7 7 7 7 3 7 z 1 7 ",
"0 : J ` @ 0 7 7 7 7 7 7 $ 3 y 7 $ 7 7 7 7 7 7 7 7 3 u s 3 7 ",
"7 1 z Z 1 7 7 7 7 7 7 7 7 7 3 7 0 7 7 7 7 7 7 7 0 $ F } @ 0 ",
"7 7 3 1 7 7 7 7 7 7 7 7 7 7 7 7 7 7 7 7 7 7 7 7 7 : F ' @ 0 ",
"0 : F ' @ 0 7 7 7 7 7 7 7 7 7 7 7 7 7 7 7 7 7 7 7 7 : 0 7 7 ",
"0 : J } @ 0 7 7 7 7 7 7 7 7 7 7 7 7 7 7 7 7 7 7 3 7 W 1 7 7 ",
"7 3 y s 3 7 7 7 7 7 7 7 7 7 7 7 7 7 7 7 7 7 7 7 7  .Z 1 7 7 ",
"7 3 s s : 7 7 7 7 7 7 7 7 7 7 7 7 7 7 7 7 7 0 : W Z @ 7 7 7 ",
"7 1 h o.s 3 7 7 7 7 7 7 3 7 7 7 0 7 7 7 7 7 7 3 : 3 7 7 7 7 ",
"7 0   ) J $ 7 7 7 7 3 1 f 0 3 $ $ 7 1 $ : 0 $ F W : 0 7 7 7 ",
"7 7 7 0 : 7 7 7 7 7 3 T :.h 0 L F 3 z L M : b ` 0 7 7 7 7 7 ",
"7 7 0 1 W 3 7 3 1 1 u T @ 1 h o.' 3 C @.^ @ -.L @ 0 7 7 7 7 ",
"7 7 7 1 F o.1 0 F W $ : 0 7 3 @ $ 7 1 X : : &.4.L $ 0 7 7 7 ",
"7 7 7 3 0  .@  .o.3 7 0 7 7 7 0 0 7 7 0 0 : *.4.4.L $ 0 7 7 ",
"7 7 7 7 7 : 7 1 : 7 7 7 7 7 7 7 7 7 7 7 0 : *.4.4.4.L @ 7 7 ",
"7 7 7 7 7 7 7 0 7 7 7 7 7 7 7 7 7 7 7 7 0 : *.4.2.2.4.^ 1 7 ",
"7 7 7 7 7 7 7 7 7 7 7 7 7 7 7 7 7 7 7 7 0 $ *.4.4.4.-.:.z 1 ",
"7 7 7 7 7 7 7 7 7 7 7 7 7 7 7 7 7 7 7 7 0 $ ;.<.$.4.@ $ 3 7 ",
"7 7 7 7 7 7 7 7 7 7 7 7 7 7 7 7 7 7 7 7 0 : &.c 1 <.o.$ 0 7 ",
"7 7 7 7 7 7 7 7 7 7 7 7 7 7 7 7 7 7 7 7 7 7 0 3 $  .,.y 7 7 ",
"7 7 7 7 7 7 7 7 7 7 7 7 7 7 7 7 7 7 7 7 7 7 7 7 7 1 4.) $ 0 ",
"7 7 7 7 7 7 7 7 7 7 7 7 7 7 7 7 7 7 7 7 7 7 7 7 7 0 M f 3 7 ",
"7 7 7 7 7 7 7 7 7 7 7 7 7 7 7 7 7 7 7 7 7 7 7 7 7 7 : 3 7 7 "
};
