/* XPM */
const char *ovalOp_xpm[] = {
/* columns rows colors chars-per-pixel */
"30 30 65 1",
"  c #323232",
". c #353535",
"X c Gray23",
"o c #3c3c3c",
"O c #3f3f3f",
"+ c #484848",
"@ c #4e4e4e",
"# c Gray31",
"$ c #515151",
"% c Gray32",
"& c Gray33",
"* c #555555",
"= c Gray35",
"- c Gray37",
"; c #606060",
": c Gray40",
"> c Gray41",
", c #888888",
"< c #8e8e8e",
"1 c Gray56",
"2 c Gray57",
"3 c #929292",
"4 c #939393",
"5 c #959595",
"6 c #9d9d9d",
"7 c Gray62",
"8 c #a0a0a0",
"9 c #a2a2a2",
"0 c #a4a4a4",
"q c #c0c0c0",
"w c #c1c1c1",
"e c Gray76",
"r c #c3c3c3",
"t c Gray77",
"y c #cbcbcb",
"u c Gray81",
"i c #d0d0d0",
"p c Gray82",
"a c #d2d2d2",
"s c #d3d3d3",
"d c Gray83",
"f c #d5d5d5",
"g c Gray84",
"h c #d7d7d7",
"j c #d8d8d8",
"k c Gray85",
"l c Gray86",
"z c gainsboro",
"x c #dfdfdf",
"c c Gray88",
"v c #e1e1e1",
"b c #e2e2e2",
"n c #e6e6e6",
"m c #e7e7e7",
"M c Gray91",
"N c #e9e9e9",
"B c #eaeaea",
"V c #ececec",
"C c Gray93",
"Z c #eeeeee",
"A c #efefef",
"S c #f1f1f1",
"D c #f3f3f3",
"F c #f6f6f6",
"G c Gray97",
/* pixels */
"gggggggggggggggggggggggggggggg",
"gggggggggggggggggggggggggggggg",
"gggggggggggggggggggggggggggggg",
"gggggggggggggggggggggggggggggg",
"gggggggggggggggggggggggggggggg",
"gggggggggggggggggggggggggggggg",
"gggggggggggagzllllaagggggggggg",
"ggggggggguvVgrtrryMmaagggggggg",
"gggggggglF04: oX.@54Vvaggggggg",
"ggggggavt$;@8SvvVr$;@8Magggggg",
"gggggavt$<gFzagaalSM6=6Maggggg",
"ggggavt+tVguggggggaamv&6Magggg",
"ggggzr@tvaggggggggggalv=8vaggg",
"ggggm,>Suggggggggggggam8&Vaggg",
"ggglrozaggggggggggggggaM-4mggg",
"ggglrXmaggggggggggggggaV-<magg",
"ggglrozaggggggggggggggaM-4mggg",
"ggggm,>Fuggggggggggggam8&Vaggg",
"ggggzr@tvaggggggggggalv=8vaggg",
"ggggavt+tVguggggggaamv&6Magggg",
"gggggavt$<gFzagaalSM6=6Maggggg",
"ggggggavt$;@8SvvVt$;@8Magggggg",
"gggggggglF04: oX.@54Vvaggggggg",
"ggggggggguvVgrtrryMmaagggggggg",
"gggggggggggagzllllaagggggggggg",
"gggggggggggggggggggggggggggggg",
"gggggggggggggggggggggggggggggg",
"gggggggggggggggggggggggggggggg",
"gggggggggggggggggggggggggggggg",
"gggggggggggggggggggggggggggggg"
};
