/* XPM */
const char *pencilOp_xpm[] = {
/* columns rows colors chars-per-pixel */
"30 30 189 2",
"   c #030302",
".  c #1b1000",
"X  c #191e1e",
"o  c #221d18",
"O  c #2b220f",
"+  c #3e2e2e",
"@  c Gray20",
"#  c #313437",
"$  c #393939",
"%  c #3a3a3a",
"&  c #3e3e3e",
"*  c #333748",
"=  c #3c3f44",
"-  c #3d4545",
";  c #463b1a",
":  c #423927",
">  c #573030",
",  c #5f3939",
"<  c #683333",
"1  c #4d4126",
"2  c #4e4227",
"3  c #43413b",
"4  c #4b4435",
"5  c #4a463d",
"6  c #584620",
"7  c #5e4a21",
"8  c #534a37",
"9  c #614a14",
"0  c #6c5310",
"q  c #7e5c17",
"w  c #705738",
"e  c Gray25",
"r  c Gray27",
"t  c #434c4c",
"y  c #58534b",
"u  c #58544b",
"i  c #515151",
"p  c #515353",
"a  c #535353",
"s  c #55575a",
"d  c #585b5a",
"f  c #5b5b5b",
"g  c #5d5d5d",
"h  c #5e5d5e",
"j  c #606060",
"k  c #666d6d",
"l  c #636770",
"z  c #727272",
"x  c #79797a",
"c  c #7b7b7b",
"v  c Gray50",
"b  c #787e89",
"n  c #87631e",
"m  c #86641e",
"M  c #8d6814",
"N  c #9c7d1d",
"B  c #a67e1b",
"V  c #aa7c2a",
"C  c #825555",
"Z  c #9a4949",
"A  c #807d7e",
"S  c #b15959",
"D  c #b26464",
"F  c #b88828",
"G  c #c29122",
"H  c #c29223",
"J  c #c59829",
"K  c #dfa735",
"L  c #e0ac30",
"P  c #e6ad36",
"I  c #f1b735",
"U  c #f0ba38",
"Y  c #ffc743",
"T  c #ffc843",
"R  c #ffd043",
"E  c #ffd044",
"W  c #ffd548",
"Q  c #ffd849",
"!  c #ffe350",
"~  c #808686",
"^  c Gray53",
"/  c #878c8c",
"(  c #888888",
")  c #8a8988",
"_  c Gray54",
"`  c Gray56",
"'  c #929292",
"]  c #929295",
"[  c #959595",
"{  c Gray59",
"}  c #979797",
"|  c #959998",
" . c #979ca9",
".. c #999da9",
"X. c #9fa6a6",
"o. c Gray64",
"O. c #a1a2a6",
"+. c #a3a7a7",
"@. c #a1a8a8",
"#. c #a9a7a6",
"$. c #a6acb7",
"%. c #a7adb7",
"&. c #b2b1ac",
"*. c #b4b4b4",
"=. c #ff9898",
"-. c #ffeaa3",
";. c #c0c0c0",
":. c #c1c1c1",
">. c #c3c3c3",
",. c #c0c2c7",
"<. c #c3c4c7",
"1. c #c6c4c0",
"2. c Gray77",
"3. c #c5c5c5",
"4. c #c6c6c6",
"5. c #c8cacb",
"6. c #cbcbcb",
"7. c #cdcdcd",
"8. c #cecece",
"9. c #caccd1",
"0. c #cfcfd0",
"q. c #cdcfd6",
"w. c #d0d0d0",
"e. c Gray82",
"r. c #d2d2d2",
"t. c #d2d3d3",
"y. c #d3d3d3",
"u. c Gray83",
"i. c #d4d5d5",
"p. c #d5d5d4",
"a. c #d5d5d5",
"s. c #d6d5d5",
"d. c Gray84",
"f. c #d7d7d6",
"g. c #d7d7d7",
"h. c #d1d4d9",
"j. c #d4d5da",
"k. c #d7d7d8",
"l. c #d8d8d6",
"z. c #d9d8d7",
"x. c #d8d8d8",
"c. c #d8d8d9",
"v. c #d9d8d8",
"b. c #d9d9d8",
"n. c Gray85",
"m. c #dad9d9",
"M. c #dadada",
"N. c #dbdbda",
"B. c Gray86",
"V. c #dbdcdc",
"C. c #dcdada",
"Z. c gainsboro",
"A. c #dddddc",
"S. c #dddddd",
"D. c Gray87",
"F. c #dfdede",
"G. c #dfdfdf",
"H. c #dedfe0",
"J. c #e1e1e1",
"K. c #e3e1e1",
"L. c #e2e2e2",
"P. c #e3e2e2",
"I. c #e5e3e1",
"U. c #e5e4e1",
"Y. c #e7e6e3",
"T. c #e4e4e4",
"R. c #e6e6e6",
"E. c #e7e6e6",
"W. c #e7e7e7",
"Q. c #e8e7e7",
"!. c #e9e8e5",
"~. c Gray91",
"^. c #e9e9e9",
"/. c #e9e9ea",
"(. c #eae9e9",
"). c #eaeaeb",
"_. c #eaebeb",
"`. c Gray92",
"'. c #ebebed",
"]. c #edecea",
"[. c #ececec",
"{. c #ececed",
"}. c #eeeeee",
"|. c #f2f1ef",
" X c Gray94",
".X c #f2f1f1",
"XX c #f4f3f3",
"oX c Gray96",
"OX c #f6f6f6",
/* pixels */
"d.d.d.d.d.d.d.d.d.d.d.d.d.d.d.d.d.d.d.d.d.d.d.d.d.d.d.d.d.d.",
"d.d.d.d.d.d.d.d.d.d.d.d.d.d.d.d.r.r.d.d.d.d.d.d.d.d.d.d.d.d.",
"d.d.d.d.d.d.d.d.d.d.d.d.d.d.d.r.E. XS.r.d.d.d.d.d.d.d.d.d.d.",
"d.d.d.d.d.d.d.d.d.d.d.d.d.d.r.E.~ t +.Q.r.d.d.d.d.d.d.d.d.d.",
"d.d.d.d.d.d.d.d.d.d.d.d.d.r.(./ < S > @.J.d.d.d.d.d.d.d.d.d.",
"d.d.d.d.d.d.d.d.d.d.d.d.d.d.C.- D =., X.J.d.d.d.d.d.d.d.d.d.",
"d.d.d.d.d.d.d.d.d.d.d.d.r.E.#.X C Z k XXr.d.d.d.d.d.d.d.d.d.",
"d.d.d.d.d.d.d.d.d.d.d.d.v.d.= 1.| + 4.d.d.d.d.d.d.d.d.d.d.d.",
"d.d.d.d.d.d.d.d.d.d.d.d.v.&.. * ] f ~.r.d.d.d.d.d.d.d.d.d.d.",
"d.d.d.d.d.d.d.d.d.d.d.r.'.5 J q O k.d.d.d.d.d.d.d.d.d.d.d.d.",
"d.d.d.d.d.d.d.d.d.d.r.].b n Q N v v.d.d.d.d.d.d.d.d.d.d.d.d.",
"d.d.d.d.d.d.d.d.d.d.d.k.y H Y 6 $.Y.d.d.d.d.d.d.d.d.d.d.d.d.",
"d.d.d.d.d.d.d.d.d.r.Y...0 ! B l |.0.d.d.d.d.d.d.d.d.d.d.d.d.",
"d.d.d.d.d.d.d.d.d.l.h.4 P I 1 <.d.d.d.d.d.d.d.d.d.d.d.d.d.d.",
"d.d.d.d.d.d.d.d.d.v.O.9 R F s (.r.d.d.d.d.d.d.d.d.d.d.d.d.d.",
"d.d.d.d.d.d.d.d.r.{.3 L E ; q.l.d.d.d.d.d.d.d.d.d.d.d.d.d.d.",
"d.d.d.d.d.d.d.r.].b m W M c S.d.d.d.d.d.d.r.d.d.d.d.d.d.d.d.",
"d.d.d.d.d.d.d.d.k.u H T 7 %.I.d.d.d.d.d.d.J.S.d.d.d.d.d.d.d.",
"d.d.d.d.d.d.r.!. .0 ! B l |.0.d.d.d.d.d.J.{ *.S.d.d.d.d.d.d.",
"d.d.d.d.d.d.v.9.8 K U 1 <.d.d.d.d.d.d.r.{.f ( E.d.d.d.d.d.d.",
"d.d.d.d.d.d.v.,.: -.V a (.r.d.d.d.d.d.d.u.J.& ;.v.d.d.d.d.d.",
"d.d.d.d.d.d.v.5.o w h H.d.d.v.S.d.d.d.d.r.E.$ >.V.d.d.d.d.d.",
"d.d.d.d.d.d.v.r.  # (.d.8.J.4.;.S.d.r.r.5.(.e ;.v.d.d.d.d.d.",
"d.d.d.d.d.d.d.r.S.( z  XOXo.$ @ v  X{.{.OX4.r 8.v.d.d.d.d.d.",
"d.d.d.d.d.d.d.d.d.E.c a f j S. Xc a h f h a 4.S.d.d.d.d.d.d.",
"d.d.d.d.d.d.d.d.d.d.E.{ ( d.v.r.E.{ ` ' ^ ;.J.r.d.d.d.d.d.d.",
"d.d.d.d.d.d.d.d.d.d.r.E.(.d.d.d.r.E.E.E.(.S.r.d.d.d.d.d.d.d.",
"d.d.d.d.d.d.d.d.d.d.d.r.r.d.d.d.d.r.r.r.r.d.d.d.d.d.d.d.d.d.",
"d.d.d.d.d.d.d.d.d.d.d.d.d.d.d.d.d.d.d.d.d.d.d.d.d.d.d.d.d.d.",
"d.d.d.d.d.d.d.d.d.d.d.d.d.d.d.d.d.d.d.d.d.d.d.d.d.d.d.d.d.d."
};
