/* XPM */
const char *polyOp_xpm[] = {
/* columns rows colors chars-per-pixel */
"30 30 100 2",
"   c #111111",
".  c #1e1e1e",
"X  c Gray12",
"o  c #282828",
"O  c #2a2a2a",
"+  c Gray17",
"@  c #393939",
"#  c #3a3a3a",
"$  c Gray23",
"%  c #3c3c3c",
"&  c Gray24",
"*  c #3e3e3e",
"=  c #3f3f3f",
"-  c #434343",
";  c #464646",
":  c #4b4b4b",
">  c #535353",
",  c #555555",
"<  c Gray35",
"1  c #5a5a5a",
"2  c #5b5b5b",
"3  c Gray36",
"4  c #5f5f5f",
"5  c #606060",
"6  c Gray39",
"7  c #646464",
"8  c #656565",
"9  c #686868",
"0  c Gray41",
"q  c #777777",
"w  c #797979",
"e  c #7b7b7b",
"r  c #808080",
"t  c #8d8d8d",
"y  c #8e8e8e",
"u  c Gray56",
"i  c #909090",
"p  c Gray57",
"a  c #929292",
"s  c #939393",
"d  c Gray59",
"f  c #979797",
"g  c #9b9b9b",
"h  c #9d9d9d",
"j  c #9f9f9f",
"k  c Gray63",
"l  c Gray64",
"z  c #a5a5a5",
"x  c #a7a7a7",
"c  c #a9a9a9",
"v  c #b4b4b4",
"b  c Gray72",
"n  c Gray74",
"m  c Gray75",
"M  c #c0c0c0",
"N  c #c1c1c1",
"B  c Gray76",
"V  c #c3c3c3",
"C  c Gray77",
"Z  c #c8c8c8",
"A  c #cacaca",
"S  c #cbcbcb",
"D  c Gray80",
"F  c #cecece",
"G  c Gray81",
"H  c #d0d0d0",
"J  c Gray82",
"K  c #d2d2d2",
"L  c #d3d3d3",
"P  c Gray83",
"I  c #d5d5d5",
"U  c Gray84",
"Y  c #d7d7d7",
"T  c #d8d8d8",
"R  c Gray85",
"E  c #dadada",
"W  c Gray86",
"Q  c gainsboro",
"!  c #dddddd",
"~  c Gray87",
"^  c #dfdfdf",
"/  c #e1e1e1",
"(  c #e2e2e2",
")  c Gray89",
"_  c #e4e4e4",
"`  c Gray90",
"'  c #e6e6e6",
"]  c #e7e7e7",
"[  c Gray91",
"{  c #e9e9e9",
"}  c Gray92",
"|  c Gray93",
" . c #eeeeee",
".. c #efefef",
"X. c Gray94",
"o. c Gray95",
"O. c #f4f4f4",
"+. c Gray96",
"@. c Gray97",
"#. c Gray100",
/* pixels */
"U U U U U U U U U U U U U U U U U U U U U U U U U U U U U U ",
"U U U U U U U U U U U U U U U U U U U U U U U U U U U U U U ",
"U U U U U U U U U U U U U U U U U U U U U U U U U U U U U U ",
"U U U U U U U U U U U U U U U U U U U U U U U U U U U U U U ",
"U U U U U U U U U U U U U U U U U U U U U U U U U U U U U U ",
"U U U U U U U U U U U U U U U U U U U U U U U U U U U U U U ",
"U U U U U U U U U U U U U U U U U U U U L U U U U U U U U U ",
"U U U U U U U U U L U U U U U U U U U L { W L U U U U U U U ",
"U U U U U U U U U ( W L U U U U U U L ( z % f ` U U U U U U ",
"U U U U U U U L ( f n { W U U U L W ..e 4 . z ` L U U U U U ",
"U U U U U U U L { 7   5 A ~ ( W o.z + r O.L : F W U U U U U ",
"U U U U U U U ` i 5 ` j + q v C e 4 A ~ F { % n W U U U U U ",
"U U U U U U L ` j 2 o.U ..e > 2 5 ~ ~ U L ( @ F W U U U U U ",
"U U U U U U W L ; C W U L ..L b O.L U U U ~ k 2 ( L U U U U ",
"U U U U U U ~ k , { L U U L W ~ F U U U U W A @ ( L U U U U ",
"U U U U U L ` % F W U U U U U L U U U U U W B @ ` L U U U U ",
"U U U U U U ~ % B W U U U U U U U U U U U W C % ~ U U U U U ",
"U U U U L { 4 y ` L U U U U U U U U U U U U ` y 4 ..L U U U ",
"U U U U L O.7 i ..W W L L U L U L U L L U L ` i 4 ..L U U U ",
"U U U U ( z : C B B C ` ` ` ` ` ` ` ` ` L F ( y 2 { L U U U ",
"U U U U ( c + - @ @ % y i i i y i i i i { ..{ #.9 i ` U U U ",
"U U U U U W ` ( ` ` ~ 5 2 2 2 2 2 2 2 2 2 2 2 9 . g ` L U U ",
"U U U U U U L L L L U { ..............{ i y i y f F W U U U ",
"U U U U U U U U U U U L L L L L L L L L ` { ` ` ` U U U U U ",
"U U U U U U U U U U U U U U U U U U U U L L L L L U U U U U ",
"U U U U U U U U U U U U U U U U U U U U U U U U U U U U U U ",
"U U U U U U U U U U U U U U U U U U U U U U U U U U U U U U ",
"U U U U U U U U U U U U U U U U U U U U U U U U U U U U U U ",
"U U U U U U U U U U U U U U U U U U U U U U U U U U U U U U ",
"U U U U U U U U U U U U U U U U U U U U U U U U U U U U U U "
};
