/* XPM */
const char * tfillOp_xpm[] = {
"40 40 29 1",
" 	c #D6D6D6D6D6D6",
".	c #000000000000",
"X	c #FFFFFFFFFFFF",
"o	c #E3E32C2C3C3C",
"O	c #D3D341413C3C",
"+	c #C3C351513C3C",
"@	c #B6B665653838",
"#	c #A6A679793838",
"$	c #96968A8A3838",
"%	c #86869E9E3838",
"&	c #7979AEAE3434",
"*	c #6969C3C33434",
"=	c #5959D3D33434",
"-	c #4949E7E73434",
";	c #3C3CFBFB3434",
":	c #F3F31C1C3C3C",
">	c #8E8E92923838",
",	c #FBFB14144141",
"<	c #7D7DA6A63838",
"1	c #AEAE6D6D3838",
"2	c #7171BABA3434",
"3	c #EBEB24243C3C",
"4	c #DBDB38383C3C",
"5	c #CBCB49493C3C",
"6	c #9E9E82823838",
"7	c #6161CBCB3434",
"8	c #BABA5D5D3C3C",
"9	c #5151DFDF3434",
"0	c #4141EFEF3434",
"                                        ",
"                                        ",
"                                        ",
"                                        ",
"                                        ",
"                                        ",
"                                        ",
"             ..                         ",
"             .X..                       ",
"            .XXXX..                     ",
"            .XXXXXX..                   ",
"           ..XXXXXXXX..                 ",
"           .XXXXXXXXXXX..               ",
"          .XXXXXXXXXXXXX..              ",
"          .oO+@#$%&*=-;.  %             ",
"         ..oO+@#$%&*=-.   %             ",
"         .:oO+@#$%&*=-.  >%             ",
"        .,:oO+@#$%&*=.   >%             ",
"        .,:oO+@#$%&*=.    %%            ",
"       .,,:oO+@#$%&*.     %%            ",
"       ..,:oO+@#$%&*.     %%<           ",
"        ...oO+@#$%&.       %<           ",
"          ..O+@#$%&.       %            ",
"            ...#$%.        %    ,       ",
"              ..$..       %%   ,        ",
"                ..        >%   ,        ",
"                    >     >%%  ,        ",
"                    >>>  $>%%     >>    ",
"                          >%% >         ",
"                     1   $>%%<X2   >    ",
"     ,   ,,:3 4OO5+  11#6$>%%<&2*77     ",
",,,,,,,,,,,:3o4OO5+8@11#6$>%%<&2*77=9-0;",
",,,,,,,,,,,:3o4OO5+8@11#6$>%%<&2*77=9-0;",
",,,,,,,,,,,:3o4OO5+8@11#6$>%%<&2*77=9-0;",
",,,,,,,,,,,:3o4OO5+8@11#6$>%%<&2*77=9-0;",
",,,,,,,,,,,:3o4OO5+8@11#6$>%%<&2*77=9-0;",
",,,,,,,,,,,:3o4OO5+8@11#6$>%%%<&2*77=9-0",
",,,,,,,,,,,,:3o4OO5+8@11#6$>%%<&2*77=9-0",
",,,,,,,,,,,,:3o4OO5+8@11#6$>%%<&2*77=9-0",
",,,,,,,,,,,,:3o4OO5+8@11#6$>%%<&2*77=9-0"};
